<?xml version="1.0" encoding="UTF-8" standalone="no"?>
<!-- Generator: Adobe Illustrator 24.1.0, SVG Export Plug-In . SVG Version: 6.00 Build 0)  -->

<svg
   version="1.1"
   id="MS-symbol"
   x="0px"
   y="0px"
   viewBox="0 0 1280 720"
   xml:space="preserve"
   sodipodi:docname="microsoftomostofore.svg"
   inkscape:version="1.1 (c68e22c387, 2021-05-23)"
   width="1280"
   height="720"
   inkscape:export-filename="C:\Users\okcra\Documents\GitHub\GameDesert.github.io\project\web\sbubby\assets\microsoftomostofore.png"
   inkscape:export-xdpi="96"
   inkscape:export-ydpi="96"
   xmlns:inkscape="http://www.inkscape.org/namespaces/inkscape"
   xmlns:sodipodi="http://sodipodi.sourceforge.net/DTD/sodipodi-0.dtd"
   xmlns="http://www.w3.org/2000/svg"
   xmlns:svg="http://www.w3.org/2000/svg"><defs
   id="defs19" /><sodipodi:namedview
   id="namedview17"
   pagecolor="#505050"
   bordercolor="#ffffff"
   borderopacity="1"
   inkscape:pageshadow="0"
   inkscape:pageopacity="0"
   inkscape:pagecheckerboard="1"
   showgrid="false"
   inkscape:zoom="0.47023103"
   inkscape:cx="182.88882"
   inkscape:cy="300.91591"
   inkscape:window-width="1920"
   inkscape:window-height="1051"
   inkscape:window-x="-9"
   inkscape:window-y="-9"
   inkscape:window-maximized="1"
   inkscape:current-layer="MS-symbol" />
<style
   type="text/css"
   id="style2">
	.st0{fill:#737373;}
	.st1{fill:#F25022;}
	.st2{fill:#7FBA00;}
	.st3{fill:#00A4EF;}
	.st4{fill:#FFB900;}
</style>

<rect
   style="fill:#ffffff;fill-opacity:1"
   id="rect11411"
   width="1280"
   height="720"
   x="0"
   y="0" /><g
   id="g11365"
   transform="matrix(1.7786738,0,0,1.7786738,78.625172,295.96774)"><path
     id="path10699"
     style="color:#000000;font-weight:600;font-size:61.9242px;font-family:'Segoe UI';-inkscape-font-specification:'Segoe UI, Semi-Bold';letter-spacing:-2.84px;fill:#737373;stroke-width:1.5481;-inkscape-stroke:none"
     d="m 310.96875,11.085938 c -3.20506,-1e-6 -5.87501,0.94698 -8.01172,2.841796 -2.13671,1.874658 -3.20508,4.445404 -3.20508,7.710938 v 5.019531 h -5.29101 v 5.501953 h 5.29101 v 25.458985 h 7.01563 V 32.160156 h 7.16601 v -5.501953 h -7.19726 v -4.203125 c 0,-3.850105 1.70273,-5.77539 5.10937,-5.77539 1.20946,0 2.28892,0.27215 3.23633,0.816406 v -5.835938 c -1.00788,-0.382994 -2.37973,-0.574218 -4.11328,-0.574218 z m 235.25781,0 c -3.20506,-1e-6 -5.87501,0.94698 -8.01172,2.841796 -2.1367,1.874658 -3.20507,4.445404 -3.20507,7.710938 v 5.019531 h -5.29297 v 5.501953 h 5.29297 v 25.458985 h 7.01367 V 32.160156 h 7.16601 v -5.501953 h -7.19531 v -4.203125 c 0,-3.850105 1.70274,-5.77539 5.10938,-5.77539 1.20945,0 2.28696,0.27215 3.23437,0.816406 v -5.835938 c -1.00789,-0.382994 -2.37777,-0.574218 -4.11133,-0.574218 z m -395.37304,1.08789 c -1.14899,0 -2.13644,0.382448 -2.9629,1.148438 -0.8063,0.765989 -1.20898,1.724062 -1.20898,2.873046 0,1.148984 0.40268,2.095965 1.20898,2.841797 0.82646,0.745832 1.81391,1.119141 2.9629,1.119141 1.1893,0 2.19893,-0.382448 3.02539,-1.148438 0.82646,-0.786146 1.23828,-1.723988 1.23828,-2.8125 0,-1.148984 -0.41182,-2.107057 -1.23828,-2.873046 -0.82646,-0.76599 -1.83609,-1.148438 -3.02539,-1.148438 z m -57.148442,2.085938 v 43.359375 h 6.652342 V 29.621094 c 0,-3.930736 -0.0809,-6.762539 -0.24219,-8.496094 h 0.1211 c 0.40315,1.935131 0.7856,3.374858 1.14844,4.322266 l 12.97265,32.171875 h 4.95899 l 12.93945,-32.414063 c 0.34268,-0.826462 0.73622,-2.185262 1.17969,-4.080078 h 0.12109 c -0.28221,3.326007 -0.42383,6.137579 -0.42383,8.435547 v 28.058594 h 7.13672 V 14.259766 h -9.76562 l -11.61133,28.755859 c -0.46363,1.108669 -1.06863,2.802267 -1.81446,5.080078 h -0.15039 c -0.26205,-1.088511 -0.82658,-2.741646 -1.69335,-4.958984 l -11.4004,-28.876953 z m 232.445312,3.236328 -7.01562,1.996094 v 7.166015 h -5.16993 v 5.501953 h 5.16993 v 17.507813 c 0,5.765078 3.00475,8.646484 9.01171,8.646484 2.2375,0 4.0414,-0.341985 5.41211,-1.027344 v -5.564453 c -0.86677,0.685359 -1.89468,1.029297 -3.08398,1.029297 -1.55214,0 -2.66097,-0.393541 -3.32617,-1.179687 -0.6652,-0.786148 -0.99805,-2.097298 -0.99805,-3.931641 V 32.160156 h 7.4082 v -5.501953 h -7.4082 z m 163.31836,0 -7.01563,1.996094 v 7.166015 h -5.16992 v 5.501953 h 5.16992 v 17.507813 c 0,5.765078 3.00476,8.646484 9.01172,8.646484 2.2375,0 4.04139,-0.341985 5.41211,-1.027344 v -5.564453 c -0.86677,0.685359 -1.89468,1.029297 -3.08398,1.029297 -1.55214,0 -2.66097,-0.393541 -3.32617,-1.179687 -0.6652,-0.786148 -0.99805,-2.097298 -0.99805,-3.931641 V 32.160156 h 7.4082 v -5.501953 h -7.4082 z m -314.08984,8.435547 c -5.07972,0 -9.14175,1.551976 -12.18555,4.65625 -3.02364,3.084115 -4.53516,7.175514 -4.53516,12.27539 0,4.57578 1.41036,8.304961 4.23242,11.1875 2.82207,2.862382 6.53102,4.294922 11.12696,4.294922 3.38648,0 6.31944,-0.715294 8.79883,-2.146484 v -6.109375 c -2.2375,1.794028 -4.61702,2.691406 -7.13672,2.691406 -3.00349,0 -5.40129,-0.926749 -7.19531,-2.78125 -1.77388,-1.854501 -2.66016,-4.384783 -2.66016,-7.589844 0,-3.245376 0.94698,-5.865723 2.8418,-7.861328 1.89481,-2.015761 4.32394,-3.023437 7.2871,-3.023437 2.43908,0 4.73572,0.805359 6.89258,2.417968 v -6.529297 c -2.15686,-0.987723 -4.64473,-1.482421 -7.46679,-1.482421 z m 45.57031,0 c -5.03941,0 -9.05183,1.461911 -12.03516,4.384765 -2.96316,2.922855 -4.44336,6.984882 -4.44336,12.185547 0,4.777355 1.42146,8.616835 4.26368,11.519531 2.86238,2.88254 6.68163,4.324219 11.45898,4.324219 4.91846,0 8.82973,-1.482142 11.73242,-4.445312 2.92285,-2.983327 4.38281,-6.944196 4.38281,-11.882813 0,-5.039404 -1.34966,-8.980041 -4.05078,-11.822266 -2.70112,-2.842224 -6.47076,-4.263671 -11.30859,-4.263671 z m 30.38867,0 c -1.61261,0 -3.17373,0.202316 -4.68555,0.605468 -1.51182,0.382995 -2.86343,0.967759 -4.05273,1.753907 -1.1893,0.765989 -2.13628,1.722109 -2.8418,2.871093 -0.70552,1.128827 -1.05859,2.439978 -1.05859,3.931641 0,1.209457 0.17294,2.266735 0.51562,3.173828 0.34268,0.907093 0.84652,1.723545 1.51172,2.449219 0.68536,0.705517 1.53118,1.341837 2.53906,1.90625 1.02805,0.564413 2.17734,1.097622 3.44727,1.601562 1.02804,0.382996 1.95479,0.72498 2.78125,1.027344 0.84662,0.302364 1.573,0.646302 2.17774,1.029297 0.62488,0.382995 1.11763,0.826137 1.48046,1.330078 0.36284,0.483783 0.54493,1.077687 0.54493,1.783203 0,2.499545 -2.11651,3.75 -6.34961,3.75 -3.16475,0 -6.05724,-0.998536 -8.67774,-2.99414 v 6.501953 c 2.47939,1.128826 5.41235,1.693359 8.79883,1.693359 1.75371,0 3.41599,-0.191224 4.98828,-0.574219 1.59245,-0.362837 2.99367,-0.92737 4.20313,-1.693359 1.20945,-0.765989 2.17667,-1.735155 2.90234,-2.904297 0.72567,-1.169141 1.08984,-2.539033 1.08984,-4.111328 0,-1.290087 -0.20232,-2.398922 -0.60546,-3.326172 -0.40316,-0.947408 -0.97683,-1.772999 -1.72266,-2.478516 -0.74583,-0.725673 -1.6543,-1.371133 -2.72266,-1.935546 -1.04819,-0.564414 -2.236,-1.119807 -3.5664,-1.664063 -1.00788,-0.342679 -1.90526,-0.655293 -2.69141,-0.9375 -0.76599,-0.302364 -1.43168,-0.624117 -1.99609,-0.966797 -0.54426,-0.362837 -0.95803,-0.776609 -1.24024,-1.240234 -0.2822,-0.463625 -0.42187,-1.028158 -0.42187,-1.69336 0,-0.544255 0.13967,-1.037 0.42187,-1.480468 0.28221,-0.463625 0.67574,-0.857166 1.17969,-1.179688 0.50394,-0.322522 1.10894,-0.57444 1.81445,-0.755859 0.72568,-0.181419 1.53104,-0.271485 2.41797,-0.271485 2.82207,10e-7 5.32297,0.744665 7.5,2.236329 v -6.136719 c -2.25765,-0.866778 -4.81926,-1.300781 -7.68164,-1.300781 z m 27.60938,0 c -5.03941,0 -9.05183,1.461911 -12.03516,4.384765 -2.96317,2.922855 -4.44336,6.984882 -4.44336,12.185547 0,4.777355 1.4195,8.616835 4.26172,11.519531 2.86238,2.88254 6.68358,4.324219 11.46094,4.324219 4.91845,0 8.82777,-1.482142 11.73047,-4.445312 2.92285,-2.983327 4.38476,-6.944196 4.38476,-11.882813 0,-5.039404 -1.34966,-8.980041 -4.05078,-11.822266 -2.70112,-2.842224 -6.47077,-4.263671 -11.30859,-4.263671 z m 71.93945,0 c -5.03941,0 -9.05183,1.461911 -12.03516,4.384765 -2.96316,2.922855 -4.44531,6.984882 -4.44531,12.185547 0,4.777355 1.42145,8.616835 4.26367,11.519531 2.86239,2.88254 6.68359,4.324219 11.46094,4.324219 4.91846,0 8.82777,-1.482142 11.73047,-4.445312 2.92285,-2.983327 4.38476,-6.944196 4.38476,-11.882813 0,-5.039404 -1.34966,-8.980041 -4.05078,-11.822266 -2.70112,-2.842224 -6.47076,-4.263671 -11.30859,-4.263671 z m 36.55664,0 c -4.27341,0 -7.52813,1.87373 -9.76563,5.623047 h -0.12109 v -4.896485 h -7.01562 v 30.960938 h 7.01562 v -16.75 c 0,-2.761594 0.605,-5.010586 1.81445,-6.744141 1.22962,-1.733555 2.79269,-2.599609 4.6875,-2.599609 4.07184,0 6.10743,2.883359 6.10743,8.648437 v 17.445313 h 7.04492 v -16.75 c 0,-2.560018 0.63436,-4.757455 1.90429,-6.591797 1.29009,-1.834344 2.85316,-2.751953 4.6875,-2.751953 2.17703,0 3.71791,0.726385 4.625,2.177734 0.92725,1.451348 1.39063,3.799545 1.39063,7.044922 v 16.871094 h 7.01562 V 38.541016 c 0,-8.405727 -3.40743,-12.609375 -10.2207,-12.609375 -4.55562,0 -7.98133,2.136741 -10.2793,6.410156 -0.58457,-1.914973 -1.68426,-3.457811 -3.29687,-4.626953 -1.59245,-1.1893 -3.45704,-1.783203 -5.59375,-1.783203 z m 49.58984,0 c -5.0394,0 -9.04987,1.461911 -12.0332,4.384765 -2.96317,2.922855 -4.44531,6.984882 -4.44531,12.185547 0,4.777355 1.42144,8.616835 4.26367,11.519531 2.86238,2.88254 6.68163,4.324219 11.45898,4.324219 4.91846,0 8.82973,-1.482142 11.73243,-4.445312 2.92285,-2.983327 4.38476,-6.944196 4.38476,-11.882813 0,-5.039404 -1.35161,-8.980041 -4.05273,-11.822266 -2.70112,-2.842224 -6.47077,-4.263671 -11.3086,-4.263671 z m 30.39063,0 c -1.61262,0 -3.17568,0.202316 -4.6875,0.605468 -1.51182,0.382995 -2.86148,0.967759 -4.05078,1.753907 -1.1893,0.765989 -2.13629,1.722109 -2.8418,2.871093 -0.70552,1.128827 -1.05859,2.439978 -1.05859,3.931641 0,1.209457 0.17099,2.266735 0.51367,3.173828 0.34268,0.907093 0.84652,1.723545 1.51172,2.449219 0.68536,0.705517 1.53313,1.341837 2.54101,1.90625 1.02804,0.564413 2.17538,1.097622 3.44532,1.601562 1.02803,0.382996 1.95673,0.72498 2.7832,1.027344 0.84662,0.302364 1.57105,0.646302 2.17578,1.029297 0.62489,0.382995 1.11959,0.826137 1.48242,1.330078 0.36284,0.483783 0.54492,1.077687 0.54492,1.783203 0,2.499545 -2.11651,3.75 -6.34961,3.75 -3.16474,0 -6.0592,-0.998536 -8.67968,-2.99414 v 6.501953 c 2.47938,1.128826 5.41234,1.693359 8.79882,1.693359 1.75372,0 3.41795,-0.191224 4.99024,-0.574219 1.59245,-0.362837 2.99366,-0.92737 4.20312,-1.693359 1.20946,-0.765989 2.17667,-1.735155 2.90235,-2.904297 0.72567,-1.169141 1.08789,-2.539033 1.08789,-4.111328 0,-1.290087 -0.20036,-2.398922 -0.60352,-3.326172 -0.40315,-0.947408 -0.97877,-1.772999 -1.72461,-2.478516 -0.74583,-0.725673 -1.65235,-1.371133 -2.7207,-1.935546 -1.04819,-0.564414 -2.23796,-1.119807 -3.56836,-1.664063 -1.00788,-0.342679 -1.90525,-0.655293 -2.69141,-0.9375 -0.76598,-0.302364 -1.42972,-0.624117 -1.99414,-0.966797 -0.54425,-0.362837 -0.95802,-0.776609 -1.24023,-1.240234 -0.28221,-0.463625 -0.42383,-1.028158 -0.42383,-1.69336 0,-0.544255 0.14162,-1.037 0.42383,-1.480468 0.28221,-0.463625 0.67575,-0.857166 1.17969,-1.179688 0.50394,-0.322522 1.10698,-0.57444 1.8125,-0.755859 0.72567,-0.181419 1.53298,-0.271485 2.41992,-0.271485 2.82207,10e-7 5.32103,0.744665 7.49805,2.236329 v -6.136719 c -2.25766,-0.866778 -4.81731,-1.300781 -7.67969,-1.300781 z m 46.77929,0 c -5.0394,0 -9.04987,1.461911 -12.0332,4.384765 -2.96316,2.922855 -4.44531,6.984882 -4.44531,12.185547 0,4.777355 1.42145,8.616835 4.26367,11.519531 2.86239,2.88254 6.68163,4.324219 11.45899,4.324219 4.91846,0 8.82972,-1.482142 11.73242,-4.445312 2.92285,-2.983327 4.38476,-6.944196 4.38476,-11.882813 0,-5.039404 -1.35161,-8.980041 -4.05273,-11.822266 -2.70112,-2.842224 -6.47077,-4.263671 -11.3086,-4.263671 z m 51.61915,0 c -5.03941,0 -9.05183,1.461911 -12.03516,4.384765 -2.96317,2.922855 -4.44336,6.984882 -4.44336,12.185547 0,4.777355 1.42145,8.616835 4.26367,11.519531 2.86238,2.88254 6.68163,4.324219 11.45899,4.324219 4.91846,0 8.82972,-1.482142 11.73242,-4.445312 2.92285,-2.983327 4.38281,-6.944196 4.38281,-11.882813 0,-5.039404 -1.34966,-8.980041 -4.05078,-11.822266 -2.70112,-2.842224 -6.47077,-4.263671 -11.30859,-4.263671 z m 52.10156,0 c -4.2331,0 -7.7802,1.522605 -10.64258,4.566406 -2.84223,3.023642 -4.26367,6.944048 -4.26367,11.761719 0,5.099876 1.28897,9.060745 3.86914,11.882812 2.60033,2.801909 6.17875,4.203125 10.73437,4.203125 4.63626,0 8.36544,-0.888239 11.1875,-2.662109 v -5.654297 c -2.76159,1.975447 -5.79571,2.964844 -9.10156,2.964844 -2.94301,0 -5.25988,-0.777942 -6.95312,-2.330079 -1.67308,-1.552136 -2.55023,-3.758712 -2.63086,-6.621093 h 21.10547 v -2.691407 c 0,-4.837827 -1.16039,-8.616612 -3.47852,-11.33789 -2.31813,-2.721279 -5.59307,-4.082031 -9.82617,-4.082031 z m -415.93555,0.18164 c -1.75371,0 -3.34616,0.614136 -4.77734,1.84375 -1.41104,1.209457 -2.45917,2.903056 -3.14453,5.080078 h -0.1211 v -6.378906 h -7.01367 v 30.960938 h 7.01367 V 42.802734 c 0,-3.225218 0.69506,-5.773779 2.08594,-7.648437 1.39087,-1.874659 3.12494,-2.8125 5.20117,-2.8125 1.59246,0 2.81158,0.332845 3.6582,0.998047 V 26.6875 c -0.66519,-0.382995 -1.63241,-0.574219 -2.90234,-0.574219 z m 398.54688,0 c -1.75372,0 -3.34616,0.614136 -4.77735,1.84375 -1.41103,1.209457 -2.45917,2.903056 -3.14453,5.080078 h -0.12109 v -6.378906 h -7.01367 v 30.960938 h 7.01367 V 42.802734 c 0,-3.225218 0.69701,-5.773779 2.08789,-7.648437 1.39087,-1.874659 3.12298,-2.8125 5.19922,-2.8125 1.59245,0 2.81158,0.332845 3.6582,0.998047 V 26.6875 c -0.6652,-0.382995 -1.63241,-0.574219 -2.90234,-0.574219 z m -453.21875,0.544922 v 30.960938 h 7.01562 V 26.658203 Z m 470.51757,4.443359 c 2.05608,0 3.66875,0.706155 4.8379,2.117188 1.16916,1.390875 1.76306,3.345532 1.7832,5.865234 h -14.33203 c 0.32252,-2.378598 1.17943,-4.303884 2.57031,-5.77539 1.41103,-1.471506 3.12486,-2.207032 5.14062,-2.207032 z m -397.30859,0.423829 c 2.76159,0 4.8781,0.926749 6.34961,2.78125 1.49166,1.8545 2.23828,4.48594 2.23828,7.892578 0,3.386479 -0.74662,5.995735 -2.23828,7.830078 -1.47151,1.834343 -3.58802,2.751953 -6.34961,2.751953 -2.70112,0 -4.8581,-0.926749 -6.4707,-2.78125 -1.61262,-1.874659 -2.41797,-4.434311 -2.41797,-7.679688 0,-3.366322 0.79622,-6.0069 2.38867,-7.921874 1.59245,-1.914974 3.75857,-2.873047 6.5,-2.873047 z m 57.99805,0 c 2.76159,0 4.8781,0.926749 6.34961,2.78125 1.49166,1.8545 2.23828,4.48594 2.23828,7.892578 0,3.386479 -0.74662,5.995735 -2.23828,7.830078 -1.47151,1.834343 -3.58802,2.751953 -6.34961,2.751953 -2.70112,0 -4.85809,-0.926749 -6.47071,-2.78125 -1.6126,-1.874659 -2.41796,-4.434311 -2.41796,-7.679688 0,-3.366322 0.79621,-6.0069 2.38867,-7.921874 1.59244,-1.914974 3.75856,-2.873047 6.5,-2.873047 z m 71.93945,0 c 2.76159,0 4.8781,0.926749 6.34961,2.78125 1.49166,1.8545 2.23828,4.48594 2.23828,7.892578 0,3.386479 -0.74662,5.995735 -2.23828,7.830078 -1.47151,1.834343 -3.58802,2.751953 -6.34961,2.751953 -2.70112,0 -4.8581,-0.926749 -6.4707,-2.78125 -1.61262,-1.874659 -2.41992,-4.434311 -2.41992,-7.679688 0,-3.366322 0.79817,-6.0069 2.39062,-7.921874 1.59245,-1.914974 3.75857,-2.873047 6.5,-2.873047 z m 86.14844,0 c 2.76159,0 4.87811,0.926749 6.34961,2.78125 1.49166,1.8545 2.23633,4.48594 2.23633,7.892578 0,3.386479 -0.74467,5.995735 -2.23633,7.830078 -1.4715,1.834343 -3.58802,2.751953 -6.34961,2.751953 -2.70113,0 -4.8581,-0.926749 -6.47071,-2.78125 -1.6126,-1.874659 -2.41992,-4.434311 -2.41992,-7.679688 0,-3.366322 0.79623,-6.0069 2.38868,-7.921874 1.59245,-1.914974 3.76051,-2.873047 6.50195,-2.873047 z m 77.16992,0 c 2.76159,0 4.8781,0.926749 6.34961,2.78125 1.49166,1.8545 2.23633,4.48594 2.23633,7.892578 0,3.386479 -0.74467,5.995735 -2.23633,7.830078 -1.47151,1.834343 -3.58802,2.751953 -6.34961,2.751953 -2.70112,0 -4.85809,-0.926749 -6.4707,-2.78125 -1.61261,-1.874659 -2.41993,-4.434311 -2.41993,-7.679688 0,-3.366322 0.79622,-6.0069 2.38868,-7.921874 1.59245,-1.914974 3.76052,-2.873047 6.50195,-2.873047 z m 51.61719,0 c 2.76159,0 4.8781,0.926749 6.34961,2.78125 1.49166,1.8545 2.23828,4.48594 2.23828,7.892578 0,3.386479 -0.74662,5.995735 -2.23828,7.830078 -1.47151,1.834343 -3.58802,2.751953 -6.34961,2.751953 -2.70112,0 -4.8581,-0.926749 -6.47071,-2.78125 -1.61261,-1.874659 -2.41796,-4.434311 -2.41796,-7.679688 0,-3.366322 0.79621,-6.0069 2.38867,-7.921874 1.59245,-1.914974 3.75856,-2.873047 6.5,-2.873047 z" /><g
     id="g14">
	<path
   style="color:#000000;fill:#f25022;-inkscape-stroke:none"
   d="M 0,0 H 34.200001 V 34.200001 H 0 Z"
   id="rect6" />
	<path
   style="color:#000000;fill:#7fba00;-inkscape-stroke:none"
   d="M 37.799999,0 H 72 V 34.200001 H 37.799999 Z"
   id="rect8" />
	<path
   style="color:#000000;fill:#00a4ef;-inkscape-stroke:none"
   d="M 0,37.799999 H 34.200001 V 72 H 0 Z"
   id="rect10" />
	<path
   style="color:#000000;fill:#ffb900;-inkscape-stroke:none"
   d="M 37.799999,37.799999 H 72 V 72 H 37.799999 Z"
   id="rect12" />
</g></g>
</svg>
