<?xml version="1.0" encoding="UTF-8" standalone="no"?>
<!-- Created with Inkscape (http://www.inkscape.org/) -->

<svg
   width="512"
   height="512"
   viewBox="0 0 135.46667 135.46667"
   version="1.1"
   id="svg5"
   xmlns="http://www.w3.org/2000/svg"
   xmlns:svg="http://www.w3.org/2000/svg">
  <defs
     id="defs2" />
  <g
     id="layer1">
    <rect
       style="fill:#000000;stroke-width:0.264583;stroke-linecap:round;stroke-linejoin:round;paint-order:markers fill stroke;stop-color:#000000;fill-opacity:0"
       id="rect5867"
       width="135.46667"
       height="135.46667"
       x="0"
       y="0" />
    <path
       id="path5122"
       style="fill:#000000;stroke-width:0.264583;stroke-linecap:round;stroke-linejoin:round;paint-order:markers fill stroke;stop-color:#000000"
       d="M 67.733332,-2.840145e-6 A 67.734475,67.734475 0 0 0 -2.840145e-6,67.733332 67.734475,67.734475 0 0 0 67.733332,135.46667 67.734475,67.734475 0 0 0 135.46667,67.733332 67.734475,67.734475 0 0 0 67.733332,-2.840145e-6 Z m 0,9.879114640145 A 57.854064,57.854064 0 0 1 125.58755,67.733332 57.854064,57.854064 0 0 1 67.733332,125.58755 57.854064,57.854064 0 0 1 9.8791118,67.733332 57.854064,57.854064 0 0 1 67.733332,9.8791118 Z M 80.422535,38.606418 v 6.476084 H 104.267 v -6.476084 z m -54.590392,1.533946 v 55.696392 h 19.245211 c 3.065925,0 5.906202,-0.311301 8.5179,-0.935843 2.611711,-0.681313 4.855126,-1.70269 6.728738,-3.065304 1.930398,-1.362641 3.435436,-3.068367 4.514179,-5.112295 1.078755,-2.043941 1.616443,-4.457156 1.616443,-7.239195 0,-3.747213 -1.021376,-6.695555 -3.065317,-8.853053 -1.987156,-2.214282 -4.513585,-3.662721 -7.579483,-4.344021 v -0.340314 c 2.44137,-0.851655 4.34517,-2.413268 5.707824,-4.684322 1.362614,-2.271054 2.041816,-4.743443 2.041816,-7.411926 0,-2.554927 -0.512028,-4.710867 -1.533946,-6.470923 -0.965212,-1.760069 -2.357037,-3.149334 -4.173878,-4.171304 -1.760056,-1.078742 -3.856809,-1.845432 -6.298192,-2.299632 -2.384598,-0.510972 -5.026774,-0.76826 -7.922384,-0.76826 z m 9.879115,7.664568 h 7.239195 c 3.633682,0 6.358198,0.565962 8.175026,1.701529 1.81684,1.135527 2.725004,3.067641 2.725004,5.792896 0,2.384597 -0.879863,4.288411 -2.639933,5.707823 -1.703297,1.419399 -4.512687,2.129475 -8.430254,2.129475 h -7.069038 z m 56.634795,5.194793 c -2.441383,0 -4.826284,0.512001 -7.154111,1.533946 -2.327826,1.02197 -4.40144,2.467835 -6.218281,4.341447 -1.760069,1.873613 -3.177633,4.173641 -4.256362,6.898882 -1.078756,2.725282 -1.619031,5.791946 -1.619031,9.198527 0,3.463341 0.512015,6.558331 1.533946,9.283586 1.078742,2.668483 2.555494,4.937597 4.429106,6.811223 1.873626,1.873613 4.057853,3.324638 6.556008,4.346609 2.498168,0.965212 5.194357,1.4463 8.08994,1.4463 2.668496,0 5.223198,-0.427062 7.664582,-1.278717 2.44137,-0.851656 4.65647,-1.929606 6.64365,-3.235475 l -3.32054,-6.130622 c -1.53296,0.965199 -3.09458,1.731861 -4.68434,2.299632 -1.532942,0.511038 -3.207781,0.765686 -5.024635,0.765686 -3.406555,0 -6.215971,-0.993077 -8.43024,-2.980233 -2.157485,-2.043954 -3.464449,-4.940844 -3.91865,-8.688057 h 26.569465 c 0.11352,-0.510985 0.19846,-1.192774 0.25523,-2.044403 0.11352,-0.851642 0.17273,-1.759818 0.17273,-2.725017 0,-2.895596 -0.36794,-5.563499 -1.10599,-8.004868 -0.73809,-2.441383 -1.84692,-4.543297 -3.32312,-6.303353 -1.4194,-1.760069 -3.20743,-3.123608 -5.364933,-4.088806 -2.157497,-0.965199 -4.655612,-1.446287 -7.494424,-1.446287 z m 0.252655,7.579496 c 2.895583,0 5.025797,0.936476 6.388425,2.810076 1.419407,1.816854 2.129487,4.34583 2.129487,7.58207 H 82.55201 c 0.454187,-3.406569 1.617077,-5.992145 3.49069,-7.752214 1.873613,-1.760069 4.05784,-2.639932 6.556008,-2.639932 z m -56.88745,9.9642 h 8.347756 c 4.201452,0 7.378742,0.684349 9.53624,2.046977 2.157511,1.305842 3.238048,3.433509 3.238048,6.38585 0,3.122697 -1.106263,5.450998 -3.320546,6.983954 -2.214256,1.476184 -5.365847,2.21456 -9.453742,2.21456 h -8.347756 z" />
  </g>
</svg>
