<?xml version="1.0" encoding="UTF-8" standalone="no"?>
<svg
   id="visual"
   viewBox="0 0 900 100"
   width="900"
   height="100"
   version="1.1"
   xmlns="http://www.w3.org/2000/svg"
   xmlns:svg="http://www.w3.org/2000/svg">
  <defs
     id="defs15" />
  <path
     d="M0 38L16.7 37.7C33.3 37.3 66.7 36.7 100 37.2C133.3 37.7 166.7 39.3 200 39.8C233.3 40.3 266.7 39.7 300 39C333.3 38.3 366.7 37.7 400 38.5C433.3 39.3 466.7 41.7 500 42.7C533.3 43.7 566.7 43.3 600 41.2C633.3 39 666.7 35 700 35C733.3 35 766.7 39 800 41.7C833.3 44.3 866.7 45.7 883.3 46.3L900 47L900 11L883.3 11.3C866.7 11.7 833.3 12.3 800 11.8C766.7 11.3 733.3 9.7 700 9.7C666.7 9.7 633.3 11.3 600 11.2C566.7 11 533.3 9 500 8.7C466.7 8.3 433.3 9.7 400 10.5C366.7 11.3 333.3 11.7 300 12C266.7 12.3 233.3 12.7 200 12.5C166.7 12.3 133.3 11.7 100 11.7C66.7 11.7 33.3 12.3 16.7 12.7L0 13Z"
     fill="#f6f6f6"
     id="path4" />
  <path
     d="M0 59L16.7 59C33.3 59 66.7 59 100 58C133.3 57 166.7 55 200 55.3C233.3 55.7 266.7 58.3 300 58.8C333.3 59.3 366.7 57.7 400 58.2C433.3 58.7 466.7 61.3 500 61.7C533.3 62 566.7 60 600 58.2C633.3 56.3 666.7 54.7 700 54.5C733.3 54.3 766.7 55.7 800 57.3C833.3 59 866.7 61 883.3 62L900 63L900 45L883.3 44.3C866.7 43.7 833.3 42.3 800 39.7C766.7 37 733.3 33 700 33C666.7 33 633.3 37 600 39.2C566.7 41.3 533.3 41.7 500 40.7C466.7 39.7 433.3 37.3 400 36.5C366.7 35.7 333.3 36.3 300 37C266.7 37.7 233.3 38.3 200 37.8C166.7 37.3 133.3 35.7 100 35.2C66.7 34.7 33.3 35.3 16.7 35.7L0 36Z"
     fill="#ffffff"
     id="path6" />
  <path
     d="M0 72L16.7 72C33.3 72 66.7 72 100 71C133.3 70 166.7 68 200 67.8C233.3 67.7 266.7 69.3 300 70.3C333.3 71.3 366.7 71.7 400 73.3C433.3 75 466.7 78 500 78.2C533.3 78.3 566.7 75.7 600 74C633.3 72.3 666.7 71.7 700 71.7C733.3 71.7 766.7 72.3 800 73C833.3 73.7 866.7 74.3 883.3 74.7L900 75L900 61L883.3 60C866.7 59 833.3 57 800 55.3C766.7 53.7 733.3 52.3 700 52.5C666.7 52.7 633.3 54.3 600 56.2C566.7 58 533.3 60 500 59.7C466.7 59.3 433.3 56.7 400 56.2C366.7 55.7 333.3 57.3 300 56.8C266.7 56.3 233.3 53.7 200 53.3C166.7 53 133.3 55 100 56C66.7 57 33.3 57 16.7 57L0 57Z"
     fill="#ffffff"
     id="path8" />
  <path
     d="M0 101L16.7 101C33.3 101 66.7 101 100 101C133.3 101 166.7 101 200 101C233.3 101 266.7 101 300 101C333.3 101 366.7 101 400 101C433.3 101 466.7 101 500 101C533.3 101 566.7 101 600 101C633.3 101 666.7 101 700 101C733.3 101 766.7 101 800 101C833.3 101 866.7 101 883.3 101L900 101L900 73L883.3 72.7C866.7 72.3 833.3 71.7 800 71C766.7 70.3 733.3 69.7 700 69.7C666.7 69.7 633.3 70.3 600 72C566.7 73.7 533.3 76.3 500 76.2C466.7 76 433.3 73 400 71.3C366.7 69.7 333.3 69.3 300 68.3C266.7 67.3 233.3 65.7 200 65.8C166.7 66 133.3 68 100 69C66.7 70 33.3 70 16.7 70L0 70Z"
     fill="#ffffff"
     id="path10" />
</svg>
