<?xml version="1.0" standalone="no"?>
<!DOCTYPE svg PUBLIC "-//W3C//DTD SVG 20010904//EN"
 "http://www.w3.org/TR/2001/REC-SVG-20010904/DTD/svg10.dtd">
<svg version="1.0" xmlns="http://www.w3.org/2000/svg"
 width="1408.000000pt" height="1408.000000pt" viewBox="0 0 1408.000000 1408.000000"
 preserveAspectRatio="xMidYMid meet">
<metadata>
Created by potrace 1.14, written by Peter Selinger 2001-2017
</metadata>
<g transform="translate(0.000000,1408.000000) scale(0.100000,-0.100000)"
fill="#000000" stroke="none">
<path d="M2871 11616 c2 -2 27 -6 54 -10 28 -3 61 -8 75 -10 14 -3 41 -7 60
-10 19 -3 46 -8 60 -11 14 -4 36 -8 50 -10 48 -7 96 -17 200 -42 58 -14 116
-27 129 -30 14 -2 28 -6 33 -9 5 -3 20 -8 34 -10 35 -6 404 -129 452 -150 20
-9 46 -19 57 -24 11 -4 31 -12 45 -18 49 -22 85 -35 93 -34 4 1 7 -3 7 -8 0
-6 9 -10 20 -10 11 0 20 -4 20 -10 0 -5 8 -10 18 -10 9 0 32 -9 50 -20 17 -11
32 -17 32 -14 0 4 6 2 13 -4 7 -6 55 -32 107 -58 52 -27 97 -51 100 -54 3 -3
21 -14 40 -23 38 -19 40 -20 143 -84 37 -24 69 -43 72 -43 2 0 33 -20 69 -45
37 -25 68 -45 71 -45 3 0 13 -7 23 -16 9 -9 56 -44 103 -78 75 -54 173 -130
189 -146 3 -3 34 -30 70 -60 155 -131 417 -399 503 -515 4 -5 17 -21 28 -35
12 -14 40 -50 63 -80 22 -30 43 -57 46 -60 6 -6 53 -74 121 -175 30 -44 58
-83 62 -86 5 -3 9 -10 9 -15 0 -5 15 -31 32 -59 18 -27 45 -75 62 -105 16 -30
32 -57 35 -60 3 -3 23 -39 45 -80 21 -41 41 -76 45 -78 5 -2 5 -10 2 -18 -3
-8 -1 -14 3 -14 5 0 16 -15 23 -32 8 -18 29 -65 48 -104 18 -40 33 -74 33 -78
0 -3 12 -31 26 -63 39 -87 40 -88 84 -223 23 -69 46 -134 50 -145 8 -20 56
-194 66 -237 9 -39 12 -53 14 -53 1 0 3 -9 4 -20 1 -11 8 -42 14 -70 7 -27 14
-61 16 -75 3 -14 7 -34 9 -45 3 -11 8 -42 11 -69 4 -27 9 -52 11 -55 2 -4 6
-31 9 -61 3 -30 8 -66 11 -79 2 -13 7 -51 10 -85 2 -33 7 -72 9 -86 13 -74 20
-268 20 -535 0 -268 -4 -366 -19 -500 -2 -22 -7 -71 -11 -110 -3 -38 -8 -79
-10 -90 -3 -11 -7 -38 -9 -60 -3 -22 -7 -51 -10 -65 -3 -14 -8 -43 -11 -65 -3
-22 -14 -78 -25 -125 -10 -47 -21 -98 -24 -115 -7 -47 -54 -221 -83 -310 -15
-44 -27 -84 -28 -90 -1 -5 -3 -13 -4 -17 -1 -5 -3 -11 -4 -15 -1 -7 -38 -105
-63 -173 -4 -8 -5 -18 -5 -22 1 -5 -2 -8 -8 -8 -6 0 -9 -3 -8 -7 2 -10 -3 -22
-60 -153 -56 -127 -155 -323 -211 -415 -23 -37 -41 -69 -41 -71 0 -3 -27 -45
-60 -94 -33 -49 -60 -92 -60 -95 0 -3 -5 -11 -10 -18 -6 -7 -36 -48 -67 -92
-32 -44 -60 -82 -63 -85 -3 -3 -24 -30 -47 -61 -23 -31 -47 -62 -55 -70 -11
-13 -64 -74 -139 -163 -62 -74 -292 -297 -409 -396 -53 -45 -67 -57 -135 -110
-39 -30 -74 -58 -80 -62 -33 -26 -135 -98 -156 -108 -13 -7 -26 -16 -29 -20
-7 -10 -70 -50 -212 -135 -97 -58 -102 -60 -278 -152 -160 -83 -374 -178 -392
-175 -5 1 -8 -2 -8 -6 0 -5 -6 -9 -12 -10 -7 0 -58 -17 -113 -37 -95 -36 -124
-46 -135 -50 -3 -1 -12 -5 -20 -8 -8 -3 -42 -13 -75 -22 -33 -9 -69 -20 -80
-25 -30 -14 -362 -93 -441 -106 -37 -6 -59 -10 -104 -19 -45 -9 -84 -14 -140
-21 -30 -3 -57 -8 -59 -10 -2 -2 1252 -4 2787 -4 l2791 0 1 4580 0 4580 -2792
0 c-1535 0 -2789 -2 -2787 -4z"/>
<path d="M11110 11563 c-1 -74 -1 -3414 0 -3548 l0 -100 25 29 c14 16 25 32
25 35 0 3 17 25 38 48 20 23 48 57 62 75 14 17 75 94 135 169 61 75 122 152
135 169 14 18 30 38 35 44 6 6 64 79 130 161 66 83 124 155 130 162 19 23 32
39 134 168 57 72 116 146 132 165 15 19 45 55 64 80 20 25 44 54 53 65 10 11
62 76 117 145 121 153 111 140 136 170 12 14 33 41 48 60 14 19 28 37 31 40 3
3 60 73 125 155 66 83 122 152 125 155 3 3 30 36 60 75 30 38 61 77 67 85 7 8
65 80 129 160 64 80 128 159 143 177 14 17 35 43 45 58 11 14 27 34 35 44 9
10 27 33 41 51 14 18 30 38 35 44 8 9 136 169 180 224 5 7 17 21 25 31 8 9 31
37 50 62 19 24 38 46 42 47 4 2 8 10 8 17 0 7 4 15 9 17 7 2 54 59 148 178 6
8 27 33 45 56 18 22 47 58 63 79 17 21 45 56 64 77 18 21 31 38 28 38 -2 0 11
16 29 36 19 19 34 40 34 45 0 5 -576 9 -1480 9 l-1480 0 0 -57z"/>
<path d="M1968 9175 c-2 -2 -40 -5 -86 -9 -45 -3 -92 -8 -105 -11 -12 -2 -42
-7 -67 -10 -25 -4 -56 -9 -70 -11 -14 -3 -35 -7 -47 -7 -13 -1 -23 -6 -23 -11
0 -5 -2 -7 -6 -4 -6 7 -117 -22 -199 -52 -33 -12 -64 -23 -70 -24 -64 -19
-326 -149 -380 -189 -5 -4 -37 -27 -71 -50 -132 -91 -288 -234 -380 -347 -16
-19 -32 -36 -36 -38 -5 -2 -8 -10 -8 -18 0 -8 -3 -14 -7 -14 -5 0 -24 -24 -43
-53 -19 -28 -38 -54 -41 -57 -7 -6 -73 -125 -114 -205 -36 -72 -113 -274 -121
-322 -1 -6 -7 -27 -13 -45 -6 -18 -12 -44 -15 -58 -3 -14 -8 -36 -11 -50 -4
-14 -7 -35 -8 -47 -1 -13 -3 -23 -7 -23 -3 0 -5 -15 -6 -33 0 -17 -4 -50 -8
-72 -15 -85 -20 -178 -20 -375 -1 -235 9 -354 40 -507 1 -6 5 -29 8 -50 3 -21
17 -76 31 -123 14 -47 28 -92 30 -100 22 -82 73 -204 130 -314 48 -93 107
-189 118 -194 4 -2 7 -8 7 -13 0 -5 6 -17 14 -26 8 -10 44 -54 79 -98 58 -72
184 -204 235 -247 74 -60 157 -122 222 -164 87 -56 220 -126 220 -116 0 4 4 2
8 -4 4 -6 39 -24 77 -38 39 -15 86 -34 105 -41 19 -8 71 -24 115 -36 44 -12
87 -24 95 -27 8 -3 24 -6 35 -7 11 -1 40 -7 65 -13 25 -6 68 -14 95 -17 28 -3
66 -8 85 -11 19 -2 65 -6 102 -9 37 -2 73 -7 79 -11 8 -5 9 -3 4 5 -5 10 -3
11 11 4 31 -14 293 -5 442 17 92 13 235 44 322 70 25 8 47 14 50 15 3 0 30 9
60 20 30 11 58 18 63 17 4 -1 7 3 7 8 0 6 6 10 13 10 7 0 51 19 98 42 46 23
87 41 92 40 4 -1 7 3 7 8 0 6 5 10 12 10 10 0 105 56 118 70 3 3 17 11 32 19
15 8 37 22 47 33 11 10 25 18 31 18 5 0 10 4 10 8 0 5 20 23 44 40 61 44 219
202 287 287 75 93 169 235 212 321 47 93 77 161 77 173 0 6 4 11 8 11 5 0 9 6
10 13 0 6 12 44 26 82 13 39 27 82 30 97 2 15 8 33 12 40 5 7 9 19 10 28 1 8
6 35 12 60 18 76 25 114 26 147 1 18 3 33 6 33 6 0 9 24 15 115 2 22 4 40 5
40 5 0 9 119 9 255 0 210 -3 300 -10 300 -3 0 -6 15 -7 33 -4 85 -49 314 -75
382 -7 17 -12 37 -13 45 0 8 -4 24 -8 35 -4 11 -13 34 -19 50 -22 64 -111 260
-119 263 -4 2 -8 9 -8 15 -1 11 -65 116 -88 142 -4 6 -11 17 -14 25 -20 49
-226 276 -332 365 -26 22 -61 52 -79 67 -18 15 -40 30 -49 34 -10 3 -18 10
-18 15 0 5 -5 9 -10 9 -6 0 -20 9 -32 20 -12 11 -28 20 -35 20 -7 0 -13 5 -13
10 0 6 -6 10 -14 10 -8 0 -16 4 -18 9 -10 28 -498 238 -498 215 0 -4 -7 -1
-15 6 -9 7 -18 10 -21 7 -3 -3 -24 1 -47 9 -23 8 -47 12 -54 10 -7 -3 -15 -1
-18 5 -4 5 -12 9 -18 7 -7 -1 -25 1 -42 5 -16 4 -52 9 -80 12 -27 2 -61 7 -75
10 -25 6 -406 15 -412 10z"/>
<path d="M11110 6105 c-1 -73 -1 -3385 0 -3537 l0 -108 1486 0 c1267 0 1483 2
1472 14 -7 8 -22 26 -32 41 -11 14 -27 34 -35 44 -9 10 -27 33 -41 51 -22 29
-72 91 -113 140 -20 24 -61 75 -87 110 -14 19 -33 41 -42 49 -10 9 -18 19 -18
23 0 5 -8 16 -17 26 -10 10 -29 33 -43 52 -14 18 -30 38 -35 44 -6 6 -38 45
-70 86 -33 41 -64 80 -70 87 -5 7 -15 18 -20 25 -44 56 -91 114 -95 118 -3 3
-18 23 -35 45 -16 22 -37 47 -47 56 -10 9 -18 21 -18 27 0 6 -4 12 -8 14 -4 2
-29 30 -55 63 -27 33 -54 67 -60 75 -28 35 -111 138 -137 170 -16 19 -125 157
-244 305 -118 149 -221 277 -228 285 -7 8 -31 37 -52 65 -22 27 -43 52 -48 53
-4 2 -6 8 -2 13 3 5 1 9 -4 9 -5 0 -39 38 -75 85 -37 46 -75 94 -84 106 -10
11 -25 29 -33 39 -8 10 -42 53 -75 95 -33 43 -72 91 -87 107 -16 16 -28 31
-28 34 0 4 -57 75 -145 181 -5 7 -14 18 -20 25 -5 8 -29 37 -52 65 -24 28 -43
56 -43 61 0 6 -4 12 -9 14 -8 2 -76 83 -134 158 -7 9 -39 49 -72 90 -33 41
-63 79 -68 85 -4 5 -17 21 -28 35 -11 14 -30 38 -42 53 -12 15 -30 38 -41 50
-10 12 -30 38 -45 57 -14 19 -30 40 -36 46 -10 11 -35 42 -120 149 -26 33 -52
64 -56 70 -5 5 -9 -17 -9 -50z"/>
</g>
</svg>
