<svg version="1" xmlns="http://www.w3.org/2000/svg" width="666.667" height="666.667" viewBox="0 0 500.000000 500.000000"><path d="M240 23.9c-9.5 2.9-17.8 10-22.2 18.9l-3.3 6.7-.3 83.7-.2 83.8h-24v-35.4c0-19.7-.4-37.7-1-40.7-1.4-7.5-5.6-13.7-11.4-17.4-4.4-2.7-5.8-3-12.6-3s-8.2.3-12.6 3c-3.3 2.1-6 4.8-8.2 8.5l-3.3 5.5.3 46c.3 45.4.3 46.1 2.6 51.5 5 12 15.6 22.9 27.1 27.7 6.2 2.6 7.6 2.8 24.9 3.1l18.2.4v138.6l2.6 3.1c1.4 1.7 4.2 3.5 6.2 4.1 5.3 1.4 51.8 1.2 56.2-.3 1.9-.7 4.4-2.7 5.7-4.6 2.3-3.4 2.3-3.7 2.3-35.1v-31.7l15.8-.6c23.4-.8 33.3-4.5 44.2-16.4 5.9-6.4 9.4-12.8 11.5-21 1.8-6.9 2.1-37.6.4-43.8-1.4-5.3-9.9-13.6-15.5-15.3-6.6-1.9-12.4-1.5-18.2 1.4-11.2 5.6-14.2 12.6-14.2 33.1V291h-24l-.2-120.3-.3-120.2-2.9-6.3c-3.7-8-12.3-16.2-20.1-19.1-5.8-2.2-18.2-2.8-23.5-1.2zM188 417.9c-13.2 4.1-21.4 15-21.4 28.6 0 12.3 6.2 21.8 17.6 27.1l6.3 2.9h117l5.8-2.4c7.7-3.1 14.7-10.8 17.2-18.6 3.5-11.3 0-23.3-9-31.3-8.4-7.4-6.7-7.2-72.4-7.1-32.2 0-59.7.4-61.1.8zm21 16.6v6.5h12v12h-12v12.1l-6.2-.3-6.3-.3-.3-5.7-.3-5.7-5.7-.3-5.7-.3-.3-5.7-.3-5.7 6.3-.3 6.3-.3.3-6.3.3-6.2H209v6.5zm92.8-3.7c2.4 3.1 1.2 7.9-2.4 9.3-5.1 1.9-9.3-2.2-8-7.7 1.1-4.3 7.5-5.3 10.4-1.6zm12 11.5c.8.6 1.2 2.5 1 4.6-.2 2.8-.9 3.9-3.2 5-2.5 1.2-3.1 1.1-5.5-.6-3.7-2.8-3.9-6.5-.5-9.2 2.7-2.1 5.4-2.1 8.2.2zm-24.6.4c2.4 2.1 2.3 5.8-.2 8.3-2.4 2.4-4.8 2.5-7.8.4-2.6-1.8-3-6.5-.6-8.8 2-2.1 6.3-2 8.6.1zm12.6 12.1c2.4 3.1 1.2 7.9-2.4 9.3-5.1 1.9-9.3-2.2-8-7.7 1.1-4.3 7.5-5.3 10.4-1.6z"/></svg>