<?xml version="1.0" encoding="UTF-8" standalone="no"?>
<!-- Created with Inkscape (http://www.inkscape.org/) -->

<svg
   width="1920"
   height="1080"
   viewBox="0 0 508 285.75"
   version="1.1"
   id="svg5"
   inkscape:version="1.1 (c68e22c387, 2021-05-23)"
   sodipodi:docname="PC.svg"
   xmlns:inkscape="http://www.inkscape.org/namespaces/inkscape"
   xmlns:sodipodi="http://sodipodi.sourceforge.net/DTD/sodipodi-0.dtd"
   xmlns="http://www.w3.org/2000/svg"
   xmlns:svg="http://www.w3.org/2000/svg">
  <sodipodi:namedview
     id="namedview7"
     pagecolor="#505050"
     bordercolor="#ffffff"
     borderopacity="1"
     inkscape:pageshadow="0"
     inkscape:pageopacity="0"
     inkscape:pagecheckerboard="1"
     inkscape:document-units="px"
     showgrid="false"
     inkscape:zoom="0.93470678"
     inkscape:cx="948.42578"
     inkscape:cy="553.64956"
     inkscape:window-width="1920"
     inkscape:window-height="1051"
     inkscape:window-x="-9"
     inkscape:window-y="-9"
     inkscape:window-maximized="1"
     inkscape:current-layer="layer1" />
  <defs
     id="defs2" />
  <g
     inkscape:label="Layer 1"
     inkscape:groupmode="layer"
     id="layer1">
    <path
       id="rect75"
       style="color:#000000;fill:#000000;stroke-width:3.77953;-inkscape-stroke:none"
       d="M 490.60742 246.4082 L 490.60742 255.55273 L 490.60742 833.5918 L 872.24609 833.5918 L 872.24609 871.49023 L 765.20117 871.49023 L 765.20117 915.36719 L 872.24609 915.36719 L 1047.7539 915.36719 L 1154.7988 915.36719 L 1154.7988 871.49023 L 1047.7539 871.49023 L 1047.7539 833.5918 L 1429.3926 833.5918 L 1429.3926 246.4082 L 490.60742 246.4082 z M 508.9082 264.70703 L 1411.0918 264.70703 L 1411.0918 815.29297 L 508.9082 815.29297 L 508.9082 264.70703 z "
       transform="scale(0.26458333)" />
    <text
       xml:space="preserve"
       style="font-style:normal;font-weight:normal;font-size:10.5833px;line-height:1.25;font-family:sans-serif;fill:#000000;fill-opacity:1;stroke:none;stroke-width:0.264583"
       x="137.70842"
       y="82.064613"
       id="text7878"><tspan
         sodipodi:role="line"
         id="tspan7876"
         style="stroke-width:0.264583"
         x="137.70842"
         y="82.064613">EN</tspan></text>
    <g
       id="g8627"
       transform="matrix(0.7700845,0,0,0.7700845,58.398535,32.849236)">
      <path
         id="path8537"
         style="fill:#000000;stroke-width:3.83773"
         d="m 771.38672,431.21484 0.002,0.002 c -60.07971,0 -108.7832,48.70544 -108.7832,108.78515 0,58.34124 45.93004,105.95645 103.60351,108.65821 1.72116,0.0813 3.44412,0.12695 5.18164,0.12695 27.85195,0 53.25378,-10.47216 72.5,-27.68359 -12.75163,8.4568 -27.661,13.32226 -43.59374,13.32226 -25.90625,0 -49.10671,-12.85244 -64.71094,-33.11914 -12.02899,-14.19923 -19.82081,-35.1885 -20.35156,-58.74414 v -5.12305 c 0.53041,-23.55488 8.32135,-44.54835 20.34765,-58.74414 15.60654,-20.26669 38.80625,-33.11914 64.71094,-33.11914 15.93657,0 30.84879,4.86592 43.60156,13.32813 -19.15181,-17.13283 -44.39876,-27.58271 -72.0957,-27.68555 -0.13795,0 -0.27405,-0.004 -0.41211,-0.004 z m 191.82422,65.83204 c -25.6303,0 -46.48242,21.85942 -46.48242,48.73046 0,26.86719 20.85095,48.72852 46.48242,48.72852 25.63143,0 46.48246,-21.86133 46.48246,-48.72852 0,-26.8699 -20.85103,-48.73046 -46.48246,-48.73046 z m 0,7.32226 c 21.59531,0 39.16406,18.57445 39.16406,41.4082 0,22.83221 -17.56875,41.41016 -39.16406,41.41016 -21.59532,0 -39.16407,-18.57913 -39.16406,-41.41016 0,-22.83492 17.56874,-41.4082 39.16406,-41.4082 z m 85.43166,18.41211 c -9.6312,0 -17.9308,4.54439 -23.5488,11.73437 v -10.13671 h -7.67 v 88.15234 h 7.67 v -31.61133 c 5.618,7.19036 13.9176,11.73242 23.5488,11.73242 17.8988,0 32.4629,-15.6728 32.4629,-34.93554 0,-19.26006 -14.5641,-34.9336 -32.4629,-34.9336 z m 177.5332,0.004 c -17.8988,0 -32.461,15.67549 -32.461,34.93554 0,19.26274 14.5622,34.9336 32.461,34.9336 9.6312,0 17.9311,-4.54011 23.5488,-11.73047 v 9.92578 h 7.6699 v -66.4668 h -7.6699 v 10.13672 c -5.6181,-7.1904 -13.9176,-11.73437 -23.5488,-11.73437 z m -105.7285,0.10351 c -17.8979,0.001 -32.459,15.67351 -32.459,34.93555 0,19.26274 14.5621,34.92969 32.4609,34.92969 12.8031,0 23.8966,-8.01791 29.1738,-19.63282 l -6.6074,-3.8457 c -3.9509,9.37138 -12.5695,15.90234 -22.5664,15.90234 -12.9653,0 -23.6347,-10.96242 -24.7715,-24.89648 h 57.1407 c 0.054,-0.81184 0.09,-1.6289 0.09,-2.45703 0,-20.56647 -13.3462,-34.93457 -32.459,-34.93555 z m 68.7871,0.15235 c -0.271,-0.003 -0.532,0.003 -0.7813,0.0137 h -0 c -2.644,0.11641 -5.1389,0.81136 -7.4688,2.05078 -4.9119,2.61687 -8.307,6.60594 -10.4746,11.68555 -0.051,0.1217 -0.1096,0.24101 -0.164,0.35742 -0.023,-0.003 -0.048,-0.008 -0.072,-0.0117 v -12.21289 h -0.01 v -0.125 h -7.6719 v 66.04883 h 7.6836 v -0.44727 c 0,-11.88007 0,-22.33435 0,-34.21484 0,-4.87389 0.7666,-8.82949 2.3633,-12.69141 1.4775,-3.57487 3.5413,-6.7515 6.5019,-9.28711 3.4829,-2.98223 7.4742,-4.26497 12.0449,-3.53711 0.7416,0.11906 1.4749,0.28096 2.2461,0.42969 0.4357,-2.18661 1.4781,-4.96801 1.9219,-7.18164 -1.8611,-0.52093 -4.222,-0.85899 -6.1191,-0.87695 z m -140.5918,7.32226 c 13.7202,0 24.8828,12.27395 24.8828,27.35547 0,15.08421 -11.1626,27.35352 -24.8828,27.35352 -13.7203,0 -24.8828,-12.26931 -24.8828,-27.35352 0,-15.08152 11.1625,-27.35547 24.8828,-27.35547 z m 177.5332,0 c 13.7203,0 24.8847,12.27395 24.8847,27.35547 0,15.08421 -11.1644,27.35352 -24.8847,27.35352 -13.7203,0 -24.8828,-12.26931 -24.8828,-27.35352 0,-15.08152 11.1625,-27.35547 24.8828,-27.35547 z m -105.7285,0.10547 h 0 c 13.5542,8.8e-4 23.0308,9.13362 24.6192,23.12109 h -49.1739 c 1.8618,-13.07564 12.1455,-23.12003 24.5528,-23.12109 z"
         transform="scale(0.26458333)" />
      <path
         d="m 194.62314,126.65657 c 2.64137,-3.1182 6.0525,-4.99851 9.77933,-4.99851 8.37949,0 15.17109,9.50008 15.17109,21.21882 0,11.71873 -6.79211,21.21882 -15.17109,21.21882 -3.72683,0 -7.13796,-1.87951 -9.77862,-4.9978 4.12852,5.36223 10.26672,8.7626 17.12169,8.7626 4.21584,0 8.16036,-1.28743 11.53393,-3.52496 5.89135,-5.27054 9.60102,-12.93113 9.60102,-21.45846 0,-8.52632 -3.70896,-16.1865 -9.59889,-21.45642 -3.37458,-2.23896 -7.31982,-3.52639 -11.53596,-3.52639 -6.85436,0 -12.99307,3.40037 -17.12168,8.7626"
         fill="url(#b)"
         id="path8539"
         style="fill:#1a1a1a;stroke-width:1.0154" />
    </g>
  </g>
</svg>
