<?xml version="1.0" encoding="UTF-8" standalone="no"?>
<svg
   xmlns:dc="http://purl.org/dc/elements/1.1/"
   xmlns:cc="http://creativecommons.org/ns#"
   xmlns:rdf="http://www.w3.org/1999/02/22-rdf-syntax-ns#"
   xmlns:svg="http://www.w3.org/2000/svg"
   xmlns="http://www.w3.org/2000/svg"
   width="512"
   height="512"
   viewBox="0 0 135.46666 135.46667"
   version="1.1"
   id="svg8">
  <defs
     id="defs2" />
  <metadata
     id="metadata5">
    <rdf:RDF>
      <cc:Work
         rdf:about="">
        <dc:format>image/svg+xml</dc:format>
        <dc:type
           rdf:resource="http://purl.org/dc/dcmitype/StillImage" />
        <dc:title></dc:title>
      </cc:Work>
    </rdf:RDF>
  </metadata>
  <g
     id="layer1">
    <path
       id="path833"
       style="fill:#f7931a;fill-opacity:1;stroke-width:20;stroke-linecap:round;stroke-linejoin:round"
       d="M 256 12.427734 A 243.57142 243.57142 0 0 0 12.427734 256 A 243.57142 243.57142 0 0 0 256 499.57227 A 243.57142 243.57142 0 0 0 499.57227 256 A 243.57142 243.57142 0 0 0 256 12.427734 z M 212.48047 103.84766 L 234.65625 103.84766 L 234.65625 134.19531 L 246.83008 134.19531 L 250.83008 134.19531 L 250.83008 103.84766 L 274.67578 103.84766 L 274.67578 137.19727 C 281.12311 138.75358 287.18035 140.92027 292.84961 143.69922 C 298.62997 146.47826 303.57649 150.03581 307.68945 154.37109 C 311.9136 158.59523 315.2498 163.59657 317.69531 169.37695 C 320.14089 175.15732 321.36328 181.88261 321.36328 189.55273 C 321.36328 203.00325 317.52753 214.62017 309.85742 224.40234 C 302.18731 234.0734 291.45979 240.96516 277.67578 245.07812 L 277.67578 245.74609 C 285.67939 246.74657 292.96104 248.8584 299.51953 252.08203 C 306.07806 255.19456 311.63576 259.25166 316.19336 264.25391 C 320.86213 269.25616 324.41968 275.09204 326.86523 281.76172 C 329.42194 288.32024 330.70117 295.54504 330.70117 303.4375 C 330.70117 312.21923 329.31027 320.3354 326.53125 327.7832 C 323.75219 335.23101 319.86159 341.8446 314.85938 347.625 C 309.96827 353.40537 304.07756 358.29701 297.18555 362.29883 C 290.40474 366.30062 282.90172 369.24502 274.67578 371.13477 L 274.67578 408.15234 L 250.83008 408.15234 L 250.83008 373.30273 L 234.65625 373.30273 L 234.65625 408.15234 L 212.48047 408.15234 L 212.48047 373.30273 L 181.29883 373.30273 L 181.29883 134.19531 L 212.48047 134.19531 L 212.48047 103.84766 z M 96.847656 160.73828 L 114.6543 160.73828 L 114.6543 182.99609 C 121.77669 183.88635 127.85927 185.96208 132.9043 189.22656 C 138.09772 192.34261 142.77302 196.05235 146.92773 200.35547 L 133.79492 215.26953 C 129.64018 211.41156 125.63531 208.51687 121.77734 206.58789 C 117.91939 204.51053 113.31836 203.47266 107.97656 203.47266 C 101.89285 203.47266 97.145241 205.03045 93.732422 208.14648 C 90.319607 211.11415 88.613281 215.4904 88.613281 221.27734 C 88.613281 225.72884 90.096791 229.43859 93.064453 232.40625 C 96.032123 235.22554 99.741858 237.89741 104.19336 240.41992 C 108.79324 242.79406 113.6894 245.24312 118.88281 247.76562 C 124.07623 250.13977 128.89811 253.03251 133.34961 256.44531 C 137.94949 259.85813 141.73351 264.08777 144.70117 269.13281 C 147.66884 274.02945 149.15234 280.1863 149.15234 287.60547 C 149.15234 298.28907 146.18533 307.26632 140.25 314.53711 C 134.31467 321.6595 125.78304 326.25858 114.6543 328.33594 L 114.6543 351.26172 L 96.847656 351.26172 L 96.847656 329.00391 C 90.022022 328.26194 83.122448 326.48134 76.148438 323.66211 C 69.3228 320.69444 63.386831 316.83616 58.341797 312.08789 L 69.916016 294.72852 C 75.109423 298.88324 80.376951 302.22163 85.71875 304.74414 C 91.060549 307.26667 96.773713 308.52734 102.85742 308.52734 C 110.12821 308.52734 115.54427 306.8953 119.10547 303.63086 C 122.66667 300.21804 124.44727 295.47043 124.44727 289.38672 C 124.44727 284.49007 122.96377 280.40897 119.99609 277.14453 C 117.02844 273.88011 113.24441 270.91309 108.64453 268.24219 C 104.19303 265.57129 99.371157 263.04796 94.177734 260.67383 C 88.984327 258.15131 84.086221 255.25858 79.486328 251.99414 C 75.034827 248.58134 71.325084 244.5745 68.357422 239.97461 C 65.389756 235.22635 63.90625 229.36464 63.90625 222.39062 C 63.90625 212.0038 66.875218 203.3979 72.810547 196.57227 C 78.745883 189.59824 86.757587 185.22201 96.847656 183.44141 L 96.847656 160.73828 z M 218.65039 166.04297 L 218.65039 234.07422 L 238.6582 234.07422 C 245.43906 234.07422 251.49826 233.51794 256.83398 232.40625 C 262.16972 231.29456 266.67154 229.34925 270.33984 226.57031 C 274.11934 223.6801 276.954 219.90118 278.84375 215.23242 C 280.84468 210.45248 281.8457 204.39328 281.8457 197.05664 C 281.8457 193.05483 281.28941 189.16424 280.17773 185.38477 C 279.17726 181.60526 277.23195 178.32589 274.3418 175.54688 C 271.56276 172.65667 267.72704 170.37835 262.83594 168.71094 C 258.056 166.9324 251.94194 166.04297 244.49414 166.04297 L 218.65039 166.04297 z M 414.54492 179.19727 C 423.23655 179.19727 430.66496 180.85717 436.82812 184.17578 C 443.14931 187.49442 448.67907 191.99846 453.41992 197.6875 L 438.25 212.62109 C 435.24751 209.14447 432.08623 206.45691 428.76758 204.56055 C 425.449 202.50617 421.49888 201.48047 416.91602 201.48047 C 409.48864 201.48047 403.72013 203.69237 399.61133 208.11719 C 395.50257 212.38399 393.44922 218.54794 393.44922 226.60742 C 393.44922 230.55816 393.84266 234.42995 394.63281 238.22266 C 395.42304 241.85731 396.3724 245.57058 397.47852 249.36328 L 433.98242 249.36328 L 433.98242 266.9043 L 401.50781 266.9043 C 401.9818 270.06487 402.21875 273.38272 402.21875 276.85938 C 402.21875 283.97069 401.19116 289.89781 399.13672 294.63867 C 397.08236 299.37956 393.92307 304.04021 389.65625 308.62305 L 389.65625 309.57227 L 453.6582 309.57227 L 453.6582 332.80273 L 352.91211 332.80273 L 352.91211 315.97266 C 360.49749 312.17996 366.58116 306.88511 371.16406 300.08984 C 375.74696 293.13656 378.03906 285.31466 378.03906 276.62305 C 378.03906 274.88477 377.95981 273.30511 377.80273 271.88281 C 377.64566 270.30257 377.40879 268.64268 377.0918 266.9043 L 353.38672 266.9043 L 353.38672 250.54883 L 369.26953 249.36328 L 372.11328 249.36328 C 370.84885 245.25451 369.66462 241.22416 368.55859 237.27344 C 367.61057 233.1647 367.13672 229.13435 367.13672 225.18359 C 367.13672 218.07228 368.2427 211.67343 370.45508 205.98438 C 372.82555 200.29531 376.06503 195.47415 380.17383 191.52344 C 384.44065 187.5727 389.49663 184.57 395.34375 182.51562 C 401.19083 180.3032 407.59161 179.19727 414.54492 179.19727 z M 218.65039 265.92188 L 218.65039 341.62109 L 242.16016 341.62109 C 249.38563 341.62109 255.99924 341.06677 262.00195 339.95508 C 268.00467 338.73239 273.17448 336.67543 277.50977 333.78516 C 281.84505 330.7838 285.23607 326.78157 287.68164 321.7793 C 290.12717 316.77705 291.34961 310.49645 291.34961 302.9375 C 291.34961 297.71291 290.68155 292.87809 289.34766 288.43164 C 288.01376 283.87402 285.62375 279.92662 282.17773 276.5918 C 278.84286 273.25696 274.28622 270.64561 268.50586 268.75586 C 262.83664 266.86611 255.61183 265.92188 246.83008 265.92188 L 218.65039 265.92188 z "
       transform="scale(0.26458333)" />
  </g>
</svg>
