<svg id="visual" viewBox="0 0 900 112.3" width="900" height="112.3" xmlns="http://www.w3.org/2000/svg" xmlns:xlink="http://www.w3.org/1999/xlink" version="1.1"><rect x="0" y="0" width="900" height="112.3" fill="#D9B855"></rect><path d="M0 13L47 13L47 18L95 18L95 34L142 34L142 2L189 2L189 20L237 20L237 9L284 9L284 40L332 40L332 39L379 39L379 7L426 7L426 27L474 27L474 2L521 2L521 40L568 40L568 5L616 5L616 12L663 12L663 11L711 11L711 4L758 4L758 17L805 17L805 29L853 29L853 21L900 21L900 43L900 113L900 113L853 113L853 113L805 113L805 113L758 113L758 113L711 113L711 113L663 113L663 113L616 113L616 113L568 113L568 113L521 113L521 113L474 113L474 113L426 113L426 113L379 113L379 113L332 113L332 113L284 113L284 113L237 113L237 113L189 113L189 113L142 113L142 113L95 113L95 113L47 113L47 113L0 113Z" fill="#d9b855"></path><path d="M0 59L47 59L47 44L95 44L95 35L142 35L142 29L189 29L189 46L237 46L237 44L284 44L284 51L332 51L332 42L379 42L379 44L426 44L426 46L474 46L474 43L521 43L521 22L568 22L568 35L616 35L616 45L663 45L663 37L711 37L711 36L758 36L758 47L805 47L805 34L853 34L853 45L900 45L900 41L900 113L900 113L853 113L853 113L805 113L805 113L758 113L758 113L711 113L711 113L663 113L663 113L616 113L616 113L568 113L568 113L521 113L521 113L474 113L474 113L426 113L426 113L379 113L379 113L332 113L332 113L284 113L284 113L237 113L237 113L189 113L189 113L142 113L142 113L95 113L95 113L47 113L47 113L0 113Z" fill="#e6cd81"></path><path d="M0 80L47 80L47 58L95 58L95 63L142 63L142 86L189 86L189 67L237 67L237 44L284 44L284 53L332 53L332 50L379 50L379 83L426 83L426 64L474 64L474 64L521 64L521 54L568 54L568 84L616 84L616 63L663 63L663 56L711 56L711 63L758 63L758 86L805 86L805 55L853 55L853 61L900 61L900 51L900 113L900 113L853 113L853 113L805 113L805 113L758 113L758 113L711 113L711 113L663 113L663 113L616 113L616 113L568 113L568 113L521 113L521 113L474 113L474 113L426 113L426 113L379 113L379 113L332 113L332 113L284 113L284 113L237 113L237 113L189 113L189 113L142 113L142 113L95 113L95 113L47 113L47 113L0 113Z" fill="#f2e1ad"></path><path d="M0 72L47 72L47 91L95 91L95 85L142 85L142 103L189 103L189 88L237 88L237 107L284 107L284 93L332 93L332 84L379 84L379 78L426 78L426 100L474 100L474 107L521 107L521 70L568 70L568 89L616 89L616 101L663 101L663 69L711 69L711 107L758 107L758 83L805 83L805 97L853 97L853 110L900 110L900 106L900 113L900 113L853 113L853 113L805 113L805 113L758 113L758 113L711 113L711 113L663 113L663 113L616 113L616 113L568 113L568 113L521 113L521 113L474 113L474 113L426 113L426 113L379 113L379 113L332 113L332 113L284 113L284 113L237 113L237 113L189 113L189 113L142 113L142 113L95 113L95 113L47 113L47 113L0 113Z" fill="#fff6d9"></path></svg>