<?xml version="1.0" encoding="UTF-8" standalone="no"?>
<svg
   xmlns:dc="http://purl.org/dc/elements/1.1/"
   xmlns:cc="http://creativecommons.org/ns#"
   xmlns:rdf="http://www.w3.org/1999/02/22-rdf-syntax-ns#"
   xmlns:svg="http://www.w3.org/2000/svg"
   xmlns="http://www.w3.org/2000/svg"
   xmlns:sodipodi="http://sodipodi.sourceforge.net/DTD/sodipodi-0.dtd"
   xmlns:inkscape="http://www.inkscape.org/namespaces/inkscape"
   viewBox="0 0 2048 1024"
   version="1.1"
   id="svg26"
   sodipodi:docname="btc_donate_button.svg"
   width="2048"
   height="1024"
   inkscape:version="1.0.2 (e86c870879, 2021-01-15, custom)"
   inkscape:export-filename="C:\Users\okcra\Documents\GitHub\GameDesert.github.io\assets\btc_donate_button_light.png"
   inkscape:export-xdpi="47.900002"
   inkscape:export-ydpi="47.900002">
  <metadata
     id="metadata32">
    <rdf:RDF>
      <cc:Work
         rdf:about="">
        <dc:format>image/svg+xml</dc:format>
        <dc:type
           rdf:resource="http://purl.org/dc/dcmitype/StillImage" />
        <dc:title></dc:title>
      </cc:Work>
    </rdf:RDF>
  </metadata>
  <defs
     id="defs30" />
  <sodipodi:namedview
     pagecolor="#000000"
     bordercolor="#666666"
     borderopacity="1"
     objecttolerance="10"
     gridtolerance="10"
     guidetolerance="10"
     inkscape:pageopacity="0"
     inkscape:pageshadow="2"
     inkscape:window-width="1920"
     inkscape:window-height="1051"
     id="namedview28"
     showgrid="false"
     inkscape:pagecheckerboard="true"
     inkscape:showpageshadow="false"
     borderlayer="true"
     inkscape:zoom="0.23223684"
     inkscape:cx="588.23242"
     inkscape:cy="446.76524"
     inkscape:window-x="-9"
     inkscape:window-y="-9"
     inkscape:window-maximized="1"
     inkscape:current-layer="svg26"
     inkscape:document-rotation="0" />
  <path
     id="rect890"
     style="opacity:1;fill:#ffffff;fill-opacity:1;stroke-width:7"
     d="M 512 0 C 228.352 0 0 228.352 0 512 C 0 795.648 228.352 1024 512 1024 L 1536 1024 C 1819.648 1024 2048 795.648 2048 512 C 2048 228.352 1819.648 0 1536 0 L 512 0 z M 1546.3164 192.25977 C 1550.5822 192.25977 1554.2005 193.6516 1557.168 196.43359 C 1560.1355 199.03011 1561.6211 202.74038 1561.6211 207.5625 C 1561.6211 213.12648 1559.6701 217.66951 1555.7754 221.19336 C 1551.8806 224.53175 1547.709 226.20117 1543.2578 226.20117 C 1538.9921 226.20117 1535.3756 224.90316 1532.4082 222.30664 C 1529.6262 219.71011 1528.2363 216.09174 1528.2363 211.45508 C 1528.2363 205.52017 1530.0895 200.88526 1533.7988 197.54688 C 1537.5081 194.02302 1541.6799 192.25977 1546.3164 192.25977 z M 444.0957 202.27539 C 472.65746 202.27539 493.98466 209.04496 508.08008 222.58398 C 522.17549 235.93753 529.22461 254.0197 529.22461 276.83203 C 529.22461 292.78211 526.72048 308.17639 521.71289 323.01367 C 516.70531 337.66549 508.91532 350.64751 498.34375 361.96094 C 487.77218 373.27436 474.235 382.27049 457.72852 388.94727 C 441.40752 395.62404 421.83967 398.96289 399.02734 398.96289 C 391.23776 398.96289 382.79876 398.59147 373.71094 397.84961 C 364.62309 397.10775 356.64935 395.80974 349.78711 393.95508 L 394.57617 206.72656 C 402.36575 204.87191 410.61903 203.66576 419.33594 203.10938 C 428.05284 202.55298 436.30613 202.27539 444.0957 202.27539 z M 1339.0605 204.22266 L 1366.8809 204.22266 C 1369.8483 237.23561 1372.6301 266.81609 1375.2266 292.9668 C 1378.0086 319.11752 1381.2537 343.13846 1384.9629 365.02344 C 1392.7525 353.89548 1400.6344 341.93192 1408.6094 329.13477 C 1416.7699 316.33762 1424.8374 303.07605 1432.8125 289.35156 C 1440.973 275.44161 1448.8548 261.34533 1456.459 247.06445 C 1464.2486 232.78355 1471.6691 218.50354 1478.7168 204.22266 L 1508.4844 204.22266 C 1498.2839 223.51113 1488.2672 241.87283 1478.4375 259.30664 C 1468.7933 276.55498 1459.1481 293.15539 1449.5039 309.10547 C 1440.0452 324.87008 1430.4958 340.0767 1420.8516 354.72852 C 1411.3928 369.19487 1401.6539 383.29115 1391.6387 397.01562 L 1365.2109 397.01562 C 1362.429 383.10567 1359.8329 369.10323 1357.4219 355.00781 C 1355.0109 340.72693 1352.7843 325.79593 1350.7441 310.2168 C 1348.704 294.63765 1346.6652 278.22295 1344.625 260.97461 C 1342.7704 243.5408 1340.9152 224.62392 1339.0605 204.22266 z M 1068.6504 207.5625 L 1057.8008 252.35156 L 1107.043 252.35156 L 1101.7559 274.05078 L 1052.5156 274.05078 L 1037.2148 338.03516 C 1034.9892 346.75207 1033.877 354.35829 1033.877 360.84961 C 1033.877 366.96999 1035.5444 371.42113 1038.8828 374.20312 C 1042.2213 376.79966 1047.7867 378.09766 1055.5762 378.09766 C 1060.9547 378.09766 1066.2405 377.26295 1071.4336 375.59375 C 1076.6266 373.73908 1080.6144 372.06968 1083.3965 370.58594 L 1085.3438 392.5625 C 1082.5617 394.2317 1077.8311 395.99494 1071.1543 397.84961 C 1064.4776 399.88973 1056.8732 400.91016 1048.3418 400.91016 C 1034.4319 400.91016 1024.2315 397.8489 1017.7402 391.72852 C 1011.2489 385.60813 1008.0039 376.7078 1008.0039 365.02344 C 1008.0039 357.41934 1009.3018 347.68037 1011.8984 335.81055 L 1041.666 212.01367 L 1068.6504 207.5625 z M 441.86914 225.08789 C 427.95919 225.08789 419.61403 225.45931 416.83203 226.20117 L 381.22266 374.75781 C 382.70638 375.12874 385.21051 375.50016 388.73438 375.87109 C 392.25822 376.05658 398.00738 376.15039 405.98242 376.15039 C 420.63423 376.15039 433.80196 373.73813 445.48633 368.91602 C 457.35616 363.90843 467.3727 357.04699 475.5332 348.33008 C 483.69371 339.42772 489.99999 328.94788 494.45117 316.89258 C 498.90235 304.65182 501.12695 291.29837 501.12695 276.83203 C 501.12695 260.51102 496.39626 247.80658 486.9375 238.71875 C 477.47873 229.63092 462.45587 225.08789 441.86914 225.08789 z M 629.93164 248.73633 C 645.13984 248.73633 657.00959 253.2774 665.54102 262.36523 C 674.25792 271.2676 678.61719 283.60258 678.61719 299.36719 C 678.61719 310.12423 677.03965 321.43682 673.88672 333.30664 C 670.91926 345.17647 666.09668 356.1196 659.41992 366.13477 C 652.74313 376.14993 644.12039 384.40323 633.54883 390.89453 C 622.97726 397.38585 610.18095 400.63281 595.1582 400.63281 C 579.94998 400.63281 567.98643 396.18167 559.26953 387.2793 C 550.73809 378.19147 546.47266 365.76267 546.47266 349.99805 C 546.47266 339.24102 547.95638 327.92843 550.92383 316.05859 C 554.07675 304.18877 558.99314 293.24758 565.66992 283.23242 C 572.3467 273.21725 580.96946 264.96398 591.54102 258.47266 C 602.11258 251.98135 614.90888 248.73633 629.93164 248.73633 z M 1196.623 249.01367 C 1204.2273 249.01367 1210.7193 250.03409 1216.0977 252.07422 C 1221.6617 253.92888 1226.1107 256.52295 1229.4492 259.86133 C 1232.973 263.19973 1235.571 267.09765 1237.2402 271.54883 C 1238.9095 275.81455 1239.7441 280.26375 1239.7441 284.90039 C 1239.7441 293.6173 1238.1685 301.03588 1235.0156 307.15625 C 1231.8627 313.09117 1227.6873 318.09943 1222.4941 322.17969 C 1217.3012 326.25994 1211.1825 329.41308 1204.1348 331.63867 C 1197.2725 333.86426 1190.0377 335.62556 1182.4336 336.92383 C 1175.0148 338.22208 1167.4106 339.15062 1159.6211 339.70703 C 1152.017 340.07796 1144.7861 340.44744 1137.9238 340.81836 C 1137.7381 342.3021 1137.6445 343.50821 1137.6445 344.43555 L 1137.6445 346.66016 C 1137.6445 350.92588 1138.1079 355.00754 1139.0352 358.90234 C 1140.148 362.61165 1142.0969 365.94856 1144.8789 368.91602 C 1147.6608 371.698 1151.4611 373.92455 1156.2832 375.59375 C 1161.2908 377.26295 1167.7828 378.09766 1175.7578 378.09766 C 1179.2818 378.09766 1182.9001 377.81812 1186.6094 377.26172 C 1190.5041 376.51985 1194.1185 375.68514 1197.457 374.75781 C 1200.9808 373.64502 1204.0421 372.62655 1206.6387 371.69922 C 1209.4206 370.58643 1211.3677 369.56797 1212.4805 368.64062 L 1214.707 390.61719 C 1210.9977 392.65731 1204.969 394.79005 1196.623 397.01562 C 1188.4627 399.42668 1178.8193 400.63281 1167.6914 400.63281 C 1158.2325 400.63281 1150.0713 399.33481 1143.209 396.73828 C 1136.3468 393.95629 1130.5975 390.24601 1125.9609 385.60938 C 1121.3243 380.78725 1117.8915 375.22187 1115.666 368.91602 C 1113.4404 362.61017 1112.3281 355.93442 1112.3281 348.88672 C 1112.3281 335.90409 1114.275 323.38538 1118.1699 311.33008 C 1122.0646 299.2748 1127.6282 288.61119 1134.8613 279.33789 C 1142.0946 270.06458 1150.9048 262.73789 1161.291 257.35938 C 1171.6771 251.7954 1183.455 249.01367 1196.623 249.01367 z M 781.83008 249.29102 C 790.17605 249.29102 797.31509 250.49714 803.25 252.9082 C 809.37038 255.13379 814.28482 258.28498 817.99414 262.36523 C 821.70346 266.26002 824.39525 271.08259 826.06445 276.83203 C 827.91912 282.39601 828.84375 288.51853 828.84375 295.19531 C 828.84375 299.46103 828.47428 304.00406 827.73242 308.82617 C 826.99056 313.46282 826.06201 318.19155 824.94922 323.01367 L 807.14453 397.01562 L 781.27148 397.01562 L 797.68555 328.57812 C 798.98383 323.38508 800.18993 318.09921 801.30273 312.7207 C 802.60098 307.34218 803.25 302.24204 803.25 297.41992 C 803.25 290.00127 801.21112 283.88071 797.13086 279.05859 C 793.05061 274.05101 785.44437 271.54883 774.31641 271.54883 C 769.67976 271.54883 765.13675 271.82642 760.68555 272.38281 C 756.23438 272.93921 752.52409 273.6801 749.55664 274.60742 L 720.06836 397.01562 L 694.19727 397.01562 L 727.58008 257.91602 C 736.11151 255.3195 745.29139 253.27864 755.12109 251.79492 C 765.13625 250.12572 774.04051 249.29102 781.83008 249.29102 z M 954.3125 249.29102 C 959.32008 249.29102 965.1611 249.84815 971.83789 250.96094 C 978.51466 252.07375 984.26578 253.92691 989.08789 256.52344 L 967.66602 343.87891 C 966.7387 348.14464 965.90397 352.22435 965.16211 356.11914 C 964.60571 360.01393 964.32812 364.0956 964.32812 368.36133 C 964.32812 372.62705 964.69955 376.98631 965.44141 381.4375 C 966.18328 385.70321 967.47931 390.33811 969.33398 395.3457 L 946.52344 398.68359 C 945.5961 396.64346 944.66756 394.41887 943.74023 392.00781 C 942.81289 389.41128 942.07203 386.7234 941.51562 383.94141 C 937.43538 387.65073 931.96381 391.3571 925.10156 395.06641 C 918.23931 398.77573 909.80032 400.63281 899.78516 400.63281 C 891.62466 400.63281 884.5775 399.33481 878.64258 396.73828 C 872.89313 394.14175 868.16243 390.52337 864.45312 385.88672 C 860.74379 381.25006 857.96209 375.78045 856.10742 369.47461 C 854.43822 363.16876 853.60352 356.21153 853.60352 348.60742 C 853.60352 336.1812 855.64435 324.03388 859.72461 312.16406 C 863.99032 300.29423 870.29661 289.72252 878.64258 280.44922 C 886.98856 271.17592 897.46644 263.66547 910.07812 257.91602 C 922.68981 252.16658 937.43508 249.29102 954.3125 249.29102 z M 1663.4395 249.29102 C 1668.4472 249.29102 1674.2902 249.84815 1680.9668 250.96094 C 1687.6437 252.07375 1693.3927 253.92691 1698.2148 256.52344 L 1676.793 343.87891 C 1675.8656 348.14464 1675.031 352.22435 1674.2891 356.11914 C 1673.7327 360.01393 1673.4551 364.0956 1673.4551 368.36133 C 1673.4551 372.62705 1673.8267 376.98631 1674.5684 381.4375 C 1675.3104 385.70321 1676.6083 390.33811 1678.4629 395.3457 L 1655.6504 398.68359 C 1654.723 396.64346 1653.7945 394.41887 1652.8672 392.00781 C 1651.9399 389.41128 1651.1991 386.7234 1650.6426 383.94141 C 1646.5624 387.65073 1641.0908 391.3571 1634.2285 395.06641 C 1627.3663 398.77573 1618.9273 400.63281 1608.9121 400.63281 C 1600.7516 400.63281 1593.7044 399.33481 1587.7695 396.73828 C 1582.0201 394.14175 1577.2894 390.52337 1573.5801 385.88672 C 1569.8707 381.25006 1567.0891 375.78045 1565.2344 369.47461 C 1563.5652 363.16876 1562.7305 356.21153 1562.7305 348.60742 C 1562.7305 336.1812 1564.7713 324.03388 1568.8516 312.16406 C 1573.1173 300.29423 1579.4236 289.72252 1587.7695 280.44922 C 1596.1155 271.17592 1606.5954 263.66547 1619.207 257.91602 C 1631.8187 252.16658 1646.5622 249.29102 1663.4395 249.29102 z M 1522.1152 252.35156 L 1547.9883 252.35156 L 1513.2109 397.01562 L 1487.3398 397.01562 L 1522.1152 252.35156 z M 625.48047 270.71289 C 617.1345 270.71289 609.62405 273.12319 602.94727 277.94531 C 596.45596 282.76742 590.89251 288.97987 586.25586 296.58398 C 581.80467 304.00262 578.37395 312.25592 575.96289 321.34375 C 573.55183 330.43158 572.3457 339.242 572.3457 347.77344 C 572.3457 357.2322 574.38654 364.74461 578.4668 370.30859 C 582.54704 375.87257 589.5942 378.6543 599.60938 378.6543 C 607.95534 378.6543 615.37392 376.24204 621.86523 371.41992 C 628.54202 366.5978 634.10546 360.47919 638.55664 353.06055 C 643.19328 345.45645 646.71785 337.10931 649.12891 328.02148 C 651.53997 318.93364 652.74414 310.12324 652.74414 301.5918 C 652.74414 292.13302 650.70525 284.62257 646.625 279.05859 C 642.54474 273.49461 635.49563 270.71289 625.48047 270.71289 z M 1193.2852 270.99023 C 1186.7939 270.99023 1180.6713 272.38013 1174.9219 275.16211 C 1169.3579 277.94411 1164.3516 281.65438 1159.9004 286.29102 C 1155.4492 290.74221 1151.6469 296.03002 1148.4941 302.15039 C 1145.3412 308.08531 1142.931 314.38963 1141.2617 321.06641 C 1152.0188 320.69548 1161.8476 320.04648 1170.75 319.11914 C 1179.6523 318.00635 1187.3485 316.24504 1193.8398 313.83398 C 1200.3312 311.23746 1205.3395 307.80674 1208.8633 303.54102 C 1212.5727 299.2753 1214.4277 293.71185 1214.4277 286.84961 C 1214.4277 285.18041 1214.0564 283.41716 1213.3145 281.5625 C 1212.7581 279.70784 1211.6458 278.03841 1209.9766 276.55469 C 1208.4929 274.88549 1206.36 273.58749 1203.5781 272.66016 C 1200.7961 271.54738 1197.3655 270.99023 1193.2852 270.99023 z M 948.74805 271.54883 C 938.17649 271.54883 928.62518 273.58577 920.09375 277.66602 C 911.5623 281.74628 904.23561 287.21784 898.11523 294.08008 C 892.18032 300.75686 887.54347 308.64068 884.20508 317.72852 C 881.05216 326.63089 879.47656 335.99647 879.47656 345.82617 C 879.47656 349.72095 879.84602 353.7088 880.58789 357.78906 C 881.32975 361.68384 882.62973 365.20841 884.48438 368.36133 C 886.5245 371.32878 889.12051 373.83097 892.27344 375.87109 C 895.61182 377.72576 899.87921 378.6543 905.07227 378.6543 C 912.86184 378.6543 919.53758 376.98486 925.10156 373.64648 C 930.66554 370.30808 935.48615 366.41212 939.56641 361.96094 C 939.75188 358.80801 940.03141 355.563 940.40234 352.22461 C 940.95875 348.70076 941.60774 345.1762 942.34961 341.65234 L 959.04102 272.66016 C 958.11369 272.28924 956.53809 272.0097 954.3125 271.82422 C 952.27237 271.6388 950.41725 271.54883 948.74805 271.54883 z M 1657.875 271.54883 C 1647.3033 271.54883 1637.7521 273.58577 1629.2207 277.66602 C 1620.6893 281.74628 1613.3644 287.21784 1607.2441 294.08008 C 1601.3092 300.75686 1596.6725 308.64068 1593.334 317.72852 C 1590.1811 326.63089 1588.6055 335.99647 1588.6055 345.82617 C 1588.6055 349.72095 1588.975 353.7088 1589.7168 357.78906 C 1590.4587 361.68384 1591.7566 365.20841 1593.6113 368.36133 C 1595.6514 371.32878 1598.2495 373.83097 1601.4023 375.87109 C 1604.7408 377.72576 1609.0062 378.6543 1614.1992 378.6543 C 1621.9888 378.6543 1628.6646 376.98486 1634.2285 373.64648 C 1639.7925 370.30808 1644.6151 366.41212 1648.6953 361.96094 C 1648.8808 358.80801 1649.1583 355.563 1649.5293 352.22461 C 1650.0856 348.70076 1650.7347 345.1762 1651.4766 341.65234 L 1668.168 272.66016 C 1667.2406 272.28924 1665.6652 272.0097 1663.4395 271.82422 C 1661.3994 271.6388 1659.5441 271.54883 1657.875 271.54883 z M 484.87891 482.13672 L 457.43945 596.3125 C 463.33994 593.65728 469.24014 591.59231 475.14062 590.11719 C 481.04111 588.64207 487.38436 587.9043 494.16992 587.9043 C 508.3311 587.9043 520.57453 590.41037 530.90039 595.42578 C 541.22624 600.4412 549.78279 607.22749 556.56836 615.7832 C 563.35392 624.3389 568.36996 634.37101 571.61523 645.87695 C 574.8605 657.38291 576.48242 669.77273 576.48242 683.04883 C 576.48242 703.40552 572.6472 722.72997 564.97656 741.02148 C 557.60096 759.01797 547.42052 774.80192 534.43945 788.37305 C 521.45837 801.64915 506.11943 812.27067 488.41797 820.23633 C 470.7165 827.90696 451.53843 831.74023 430.88672 831.74023 C 428.2315 831.74023 423.51212 831.59384 416.72656 831.29883 C 410.23603 831.29883 402.71194 830.7094 394.15625 829.5293 C 385.60053 828.3492 376.45651 826.57894 366.7207 824.21875 C 357.27992 821.85855 348.28031 818.61277 339.72461 814.48242 L 416.28516 492.75781 L 484.87891 482.13672 z M 701.27734 486.5625 C 710.4231 486.5625 718.68298 489.36523 726.05859 494.9707 C 733.43419 500.28113 737.12305 508.54102 737.12305 519.75195 C 737.12305 525.94746 735.79587 531.84961 733.14062 537.45508 C 730.78044 542.76551 727.53463 547.48488 723.4043 551.61523 C 719.27396 555.45055 714.4043 558.548 708.79883 560.9082 C 703.48839 563.26838 697.73654 564.44922 691.54102 564.44922 C 682.39526 564.44922 674.13538 561.79285 666.75977 556.48242 C 659.38416 550.87696 655.69531 542.4707 655.69531 531.25977 C 655.69531 525.06427 656.87418 519.31045 659.23438 514 C 661.88959 508.39454 665.28373 503.6732 669.41406 499.83789 C 673.54441 495.70753 678.26573 492.46371 683.57617 490.10352 C 689.18164 487.74333 695.08183 486.5625 701.27734 486.5625 z M 1459.3398 486.5625 C 1468.4855 486.5625 1476.7456 489.36523 1484.1211 494.9707 C 1491.4969 500.28113 1495.1836 508.54102 1495.1836 519.75195 C 1495.1836 525.94746 1493.8564 531.84961 1491.2012 537.45508 C 1488.8409 542.76551 1485.5972 547.48488 1481.4668 551.61523 C 1477.3365 555.45055 1472.4667 558.548 1466.8613 560.9082 C 1461.5508 563.26838 1455.7991 564.44922 1449.6035 564.44922 C 1440.4578 564.44922 1432.1978 561.79285 1424.8223 556.48242 C 1417.4466 550.87696 1413.7578 542.4707 1413.7578 531.25977 C 1413.7578 525.06427 1414.9385 519.31045 1417.2988 514 C 1419.954 508.39454 1423.3462 503.6732 1427.4766 499.83789 C 1431.6069 495.70753 1436.3263 492.46371 1441.6367 490.10352 C 1447.2423 487.74333 1453.1442 486.5625 1459.3398 486.5625 z M 851.29492 524.17773 L 834.48047 592.77148 L 907.94141 592.77148 L 894.66602 646.75977 L 821.64648 646.75977 L 802.17578 728.1875 C 800.40563 734.97306 799.22481 741.31631 798.63477 747.2168 C 798.33974 753.11729 799.07752 758.27972 800.84766 762.70508 C 802.91283 766.83543 806.30499 770.08121 811.02539 772.44141 C 815.74578 774.80161 822.23736 775.98047 830.49805 775.98047 C 837.57864 775.98047 844.36299 775.39104 850.85352 774.21094 C 857.63909 772.73582 864.42537 770.81917 871.21094 768.45898 L 876.07812 818.9082 C 867.22739 822.15347 857.64031 824.95621 847.31445 827.31641 C 836.9886 829.67661 824.74516 830.85742 810.58398 830.85742 C 790.22729 830.85742 774.44334 827.90635 763.23242 822.00586 C 752.02148 815.81034 744.05633 807.54851 739.33594 797.22266 C 734.61555 786.60178 732.55058 774.50667 733.14062 760.93555 C 733.73068 747.36443 735.79565 733.05406 739.33594 718.00781 L 782.70312 534.79883 L 851.29492 524.17773 z M 1049.5508 586.57617 C 1062.8269 586.57617 1074.6293 587.90337 1084.9551 590.55859 C 1095.5759 592.91879 1105.1631 596.16458 1113.7188 600.29492 L 1091.1504 651.62891 C 1085.2499 649.26871 1079.0529 647.20374 1072.5625 645.43359 C 1066.3669 643.36841 1058.6965 642.33594 1049.5508 642.33594 C 1027.4239 642.33594 1010.0181 649.86001 997.33203 664.90625 C 984.64599 679.65747 978.30273 699.86609 978.30273 725.5332 C 978.30273 740.57944 981.54853 752.82288 988.03906 762.26367 C 994.52961 771.40942 1006.4784 775.98047 1023.8848 775.98047 C 1032.4405 775.98047 1040.7003 775.09632 1048.666 773.32617 C 1056.6316 771.55602 1063.7126 769.34271 1069.9082 766.6875 L 1074.7754 819.34961 C 1066.5147 822.59487 1057.3688 825.39761 1047.3379 827.75781 C 1037.6021 830.41302 1025.6552 831.74023 1011.4941 831.74023 C 993.20259 831.74023 977.71339 829.08582 965.02734 823.77539 C 952.34129 818.46496 941.86811 811.38589 933.60742 802.53516 C 925.34673 793.38941 919.2982 782.76788 915.46289 770.67188 C 911.92259 758.57587 910.15234 745.88938 910.15234 732.61328 C 910.15234 712.55162 913.39812 693.67021 919.88867 675.96875 C 926.3792 658.26729 935.67158 642.77804 947.76758 629.50195 C 959.86358 616.22585 974.46866 605.75266 991.58008 598.08203 C 1008.9866 590.4114 1028.309 586.57617 1049.5508 586.57617 z M 1242.4961 586.57617 C 1257.8373 586.57617 1271.2617 588.93781 1282.7676 593.6582 C 1294.5686 598.3786 1304.1575 605.0146 1311.5332 613.57031 C 1319.2038 622.12601 1324.9557 632.30449 1328.791 644.10547 C 1332.6264 655.61142 1334.5449 668.44625 1334.5449 682.60742 C 1334.5449 700.30889 1331.7423 718.00948 1326.1367 735.71094 C 1320.5312 753.41241 1312.2693 769.34468 1301.3535 783.50586 C 1290.4376 797.66703 1276.7187 809.31909 1260.1973 818.46484 C 1243.9709 827.31557 1225.0895 831.74024 1203.5527 831.74023 C 1187.9164 831.74024 1174.3458 829.38053 1162.8398 824.66016 C 1151.3339 819.93976 1141.7468 813.30376 1134.0762 804.74805 C 1126.7005 796.19234 1121.0952 786.16024 1117.2598 774.6543 C 1113.4246 762.85332 1111.5059 749.87212 1111.5059 735.71094 C 1111.5059 718.00948 1114.3088 700.30889 1119.9141 682.60742 C 1125.8147 664.90596 1134.3711 648.97368 1145.582 634.8125 C 1156.7929 620.65134 1170.5099 609.14566 1186.7363 600.29492 C 1202.9627 591.14917 1221.5493 586.57617 1242.4961 586.57617 z M 1624.8477 587.46094 C 1659.6606 587.46094 1683.5581 597.49303 1696.5391 617.55469 C 1709.5202 637.61635 1711.7333 665.05235 1703.1777 699.86523 L 1673.084 825.54492 L 1607.1465 825.54492 L 1636.3535 702.51953 C 1638.1236 694.8489 1639.4528 687.4751 1640.3379 680.39453 C 1641.5181 673.01892 1641.5181 666.67568 1640.3379 661.36523 C 1639.1578 655.75977 1636.355 651.33315 1631.9297 648.08789 C 1627.7994 644.5476 1621.3077 642.77734 1612.457 642.77734 C 1603.9013 642.77734 1595.1985 643.66345 1586.3477 645.43359 L 1543.4219 825.54492 L 1477.4824 825.54492 L 1531.0293 603.39258 C 1536.0446 601.91746 1541.5018 600.29553 1547.4023 598.52539 C 1553.5978 596.46021 1560.3841 594.68802 1567.7598 593.21289 C 1575.4303 591.44275 1583.8406 590.11749 1592.9863 589.23242 C 1602.4271 588.05233 1613.0468 587.46094 1624.8477 587.46094 z M 649.5 592.77148 L 715.4375 592.77148 L 659.67969 825.54492 L 594.18359 825.54492 L 649.5 592.77148 z M 1407.5625 592.77148 L 1473.5 592.77148 L 1417.7402 825.54492 L 1352.2461 825.54492 L 1407.5625 592.77148 z M 1236.3008 642.33594 C 1226.5651 642.33594 1218.0084 645.13868 1210.6328 650.74414 C 1203.2572 656.34961 1197.0643 663.43061 1192.0488 671.98633 C 1187.0333 680.54203 1183.1962 689.98079 1180.541 700.30664 C 1178.1808 710.33747 1177.002 719.92651 1177.002 729.07227 C 1177.002 744.11852 1179.3616 755.77251 1184.082 764.0332 C 1188.8024 771.99885 1197.359 775.98047 1209.75 775.98047 C 1219.4858 775.98047 1228.0404 773.17773 1235.416 767.57227 C 1242.7916 761.9668 1248.9865 754.88579 1254.002 746.33008 C 1259.0174 737.77437 1262.7043 728.48394 1265.0645 718.45312 C 1267.7196 708.12728 1269.0488 698.3899 1269.0488 689.24414 C 1269.0488 674.19789 1266.6891 662.69222 1261.9688 654.72656 C 1257.2483 646.46588 1248.6919 642.33594 1236.3008 642.33594 z M 477.79688 642.77734 C 473.66653 642.77734 468.20939 643.51511 461.42383 644.99023 C 454.9333 646.46536 449.03114 649.56477 443.7207 654.28516 L 414.51367 775.53906 C 416.28383 775.83408 417.75936 776.12881 418.93945 776.42383 L 423.36523 777.30859 L 428.67383 777.30859 L 436.64062 777.30859 C 446.96648 777.30859 456.70385 774.80057 465.84961 769.78516 C 474.99537 764.76975 482.81219 758.13177 489.30273 749.87109 C 496.08829 741.31538 501.39905 731.72829 505.23438 721.10742 C 509.0697 710.48654 510.98828 699.42199 510.98828 687.91602 C 510.98828 673.75486 508.62664 662.69222 503.90625 654.72656 C 499.18585 646.76091 490.48293 642.77734 477.79688 642.77734 z " />
</svg>
