<svg viewBox="0 0 206.64 75.591" xmlns="http://www.w3.org/2000/svg" xmlns:xlink="http://www.w3.org/1999/xlink">
<linearGradient id="a" gradientTransform="matrix(0 -54.944 -54.944 0 23.62 79.474)" gradientUnits="userSpaceOnUse" x2="1">
<stop offset="0" stop-color="#ff1b2d"/>
<stop offset=".3" stop-color="#ff1b2d"/>
<stop offset=".614" stop-color="#ff1b2d"/>
<stop offset="1" stop-color="#a70014"/>
</linearGradient>
<linearGradient id="b" gradientTransform="matrix(0 -48.595 -48.595 0 37.854 76.235)" gradientUnits="userSpaceOnUse" x2="1">
<stop offset="0" stop-color="#9c0000"/>
<stop offset=".7" stop-color="#ff4b4b"/>
<stop offset="1" stop-color="#ff4b4b"/>
</linearGradient>
<g transform="matrix(1.3333 0 0 -1.3333 0 107.2)">
<path d="m28.346 80.398c-15.655 0-28.346-12.691-28.346-28.346 0-15.202 11.968-27.609 26.996-28.313.44848-.02115.89766-.03314 1.3504-.03314 7.2574 0 13.876 2.7289 18.891 7.2137-3.3227-2.2036-7.2074-3.4715-11.359-3.4715-6.7504 0-12.796 3.3488-16.862 8.6297-3.1344 3.6999-5.1645 9.1691-5.3028 15.307v1.3349c.13821 6.1377 2.1683 11.608 5.302 15.307 4.0666 5.2809 10.112 8.6297 16.862 8.6297 4.1526 0 8.038-1.2679 11.361-3.4729-4.9904 4.4643-11.569 7.1876-18.786 7.2144-.03596 0-.07122.0014-.10718.0014z" fill="url(#a)"/>
<path d="m19.016 68.025c2.6013 3.0709 5.9607 4.9227 9.631 4.9227 8.2524 0 14.941-9.356 14.941-20.897s-6.6891-20.897-14.941-20.897c-3.6703 0-7.0297 1.851-9.6303 4.922 4.0659-5.2809 10.111-8.6297 16.862-8.6297 4.1519 0 8.0366 1.2679 11.359 3.4715 5.802 5.1906 9.4554 12.735 9.4554 21.133 0 8.397-3.6527 15.941-9.4533 21.131-3.3234 2.205-7.2088 3.4729-11.361 3.4729-6.7504 0-12.796-3.3488-16.862-8.6297" fill="url(#b)"/>
<path d="m100.59 40.308c-3.5751 0-6.4839 3.1972-6.4839 7.1277 0 3.9298 2.9088 7.1277 6.4839 7.1277s6.4839-3.1979 6.4839-7.1277c0-3.9305-2.9088-7.1277-6.4839-7.1277m0 16.231c-2.5096 0-4.6723-1.184-6.1362-3.0575v2.6415h-1.9984v-22.97h1.9984v8.2369c1.4639-1.8736 3.6266-3.0568 6.1362-3.0568 4.6639 0 8.459 4.0835 8.459 9.1028 0 5.0186-3.7951 9.1028-8.459 9.1028"/>
<path d="m78.329 39.757c-5.6271 0-10.205 4.8409-10.205 10.79 0 5.9501 4.5779 10.79 10.205 10.79s10.205-4.8402 10.205-10.79c0-5.9494-4.5779-10.79-10.205-10.79m0 23.488c-6.6785 0-12.112-5.6962-12.112-12.698 0-7.0008 5.4332-12.697 12.112-12.697s12.112 5.6962 12.112 12.697c0 7.0015-5.4332 12.698-12.112 12.698"/>
<path d="m137.02 56.468c-.68893-.03032-1.3391-.21155-1.9462-.53451-1.2799-.68188-2.1648-1.7213-2.7296-3.0449-.0134-.03173-.0282-.06276-.0423-.09308-.006.000705-.0127.0021-.019.0028v3.1824h-.002v.03244h-1.9991v-17.21h2.0021v.11635c0 3.0956.0007 5.8196 0 8.9153 0 1.27.19955 2.3009.61559 3.3072.38502.93151.92305 1.7594 1.6945 2.4201.90753.77708 1.9476 1.1113 3.1386.92164.19322-.03103.38431-.07334.58528-.11212.11353.56976.38502 1.2947.50066 1.8715-.55425.15513-1.2784.24751-1.7981.22494"/>
<path d="m119.3 54.536c3.5321 0 6.0016-2.3799 6.4155-6.0248h-12.813c.48515 3.4073 3.1647 6.0248 6.3979 6.0248m0 1.9751c-4.6639 0-8.4583-4.0835-8.4583-9.1028s3.7944-9.1021 8.4583-9.1021c3.3361 0 6.2272 2.0894 7.6023 5.1159l-1.722 1.002c-1.0295-2.4419-3.2754-4.1435-5.8803-4.1435-3.3784 0-6.1581 2.8566-6.4543 6.4874h14.889c.0141.21155.0233.4245.0233.64028 0 5.3592-3.4778 9.1028-8.4583 9.1028"/>
<path d="m146.85 40.308c-3.5751 0-6.4839 3.1972-6.4839 7.1277 0 3.9298 2.9088 7.1277 6.4839 7.1277s6.4839-3.1979 6.4839-7.1277c0-3.9305-2.9088-7.1277-6.4839-7.1277m6.1362 15.814v-2.6415c-1.4639 1.8736-3.6266 3.0575-6.1362 3.0575-4.6639 0-8.4583-4.0842-8.4583-9.1028 0-5.0193 3.7944-9.1028 8.4583-9.1028 2.5096 0 4.6724 1.1832 6.1362 3.0568v-2.5865h1.9984v17.319z"/>
</g>
</svg>