<svg version="1" xmlns="http://www.w3.org/2000/svg" width="933.333" height="933.333" viewBox="0 0 700.000000 700.000000"><path d="M327.8 17.6c-.2.2-4 .6-8.3.9-4.4.3-9 .7-10.1.9-1.2.2-4.5.7-7.5 1.1-3 .4-8.4 1.3-12.1 2.1-3.7.7-8.2 1.6-10 1.9-1.8.3-8.4 1.9-14.6 3.6-63.7 16.8-119.9 51.3-163.9 100.5-3.4 3.8-7.2 8.2-8.5 9.9-1.2 1.6-2.5 3.2-2.8 3.5-3.7 3.1-20.4 27.7-29.3 43.2C41 219.3 25.3 264.7 20.6 301c-.3 2.5-.8 6.3-1.1 8.5-1.8 12.8-2.3 24.6-1.9 46 .2 13.2.5 25.3.8 27 .2 1.6.8 5.4 1.1 8.4.9 6.9 2 13.9 3 19.1.3 1.4.8 3.8 1 5.5 1.2 6.6 6.6 27.5 9.5 36.5 20.1 61.7 56.5 114.8 107.9 157.3 5.3 4.3 21.4 15.8 30.1 21.3 33.5 21.5 71.4 37 110 45 17 3.5 22.8 4.4 37 6 15.9 1.7 57.8 1.1 72-1.1 2.5-.4 6.1-.8 8-1 4.6-.4 28.5-5.2 33-6.6 1.9-.5 4.6-1.2 6-1.5 4.8-.9 23.9-7.3 35.3-11.8 57.2-22.7 106.3-60.1 143.9-109.7 6.4-8.6 16-22.6 19.2-28.4.9-1.7 3-5.3 4.6-8 4.7-7.8 13.7-26.6 18.4-38.3 5.8-14.2 14.3-40.7 16.2-50.5.2-1.2 1.3-6.7 2.4-12.2 1.9-9.8 2.2-11.3 3.5-22.5.3-3 .8-6.9 1.1-8.5.9-5.9 1.2-50.1.3-58.5-1.9-19-2.3-22.1-5-36-8.2-42.6-24.3-82.4-48.7-119.9-4.8-7.5-16.5-23.7-18.1-25.1-.3-.3-2.6-3-5.1-6-15.9-19.6-39.2-41-62.8-57.9-36.1-25.8-83.7-46.3-126.2-54.5-24.3-4.7-41.4-6.3-67.2-6.4-11.4 0-20.8.2-21 .4zm-6.6 145.1l.3 20.7H332l10.5.1.3-20.8.2-20.7h32.5v23c0 18.9.2 23 1.4 23 .7 0 5.4 1.4 10.3 3.1 15.1 5.1 25.9 11.8 34.7 21.4 5.3 5.9 12.1 16.3 12.1 18.7 0 .8.4 1.8.9 2.3.7.9 2.1 5.6 3.6 12.8 1.1 5.5.6 22.4-1 30.3-5.3 25.7-24.2 46.4-51 55.9-5.5 2-7.7 3.5-5.5 3.6 1.6.1 1.8.1 9.5 1.8 39.9 9.1 63.5 41.2 61.2 83-2.2 39.8-27.7 71.5-67.4 84l-8.8 2.8V558H343v-47.6l-11-.1h-11V558h-30.5v-47.7l-21.2.1-21.3.1V504c-.1-3.6-.1-77.2-.1-163.5l-.1-157h21.1c13.3 0 21.1-.4 21.2-1 .1-.5.3-9.6.4-20 .1-10.5.3-19.3.4-19.8 0-.4 6.8-.7 15.1-.7h15l.2 20.7zm-165 57.2c.4.1.7 6.6.6 14.6-.1 8 .1 14.8.5 15.1.3.4 2.5 1 4.9 1.4 10.5 2 23.8 9.3 34.2 18.6l4.5 4.1-4.2 4.9c-2.3 2.7-5.4 6.3-6.9 7.9-1.4 1.7-3.5 4.1-4.6 5.4l-1.9 2.5-4.4-3.6c-5.5-4.5-13.4-9.1-18.2-10.7-9.2-3.1-24.4-1.6-30.8 3-4.7 3.3-8.1 10.1-8.5 17-.3 6.8.8 11 4.3 15.6 2.8 3.9 12.5 10.8 20.8 15 3.3 1.7 10.3 5.2 15.5 7.8 17.5 8.8 26.8 16.1 33.8 26.6 2.3 3.4 4.9 8.5 5.8 11.3 1.9 6.2 2.6 22.7 1.2 28.7-.5 2.4-1.1 5.3-1.4 6.4-.2 1.1-1.9 5.1-3.8 9-6.4 12.8-17.7 21.8-33.3 26.5-4 1.2-7.3 2.5-7.4 2.8 0 .4-.1 7.4-.2 15.6l-.2 15-11.2-.1c-6.1 0-11.5-.3-12-.6s-.9-6.8-.8-14.4c.1-7.6 0-14.3-.2-14.8-.2-.6-1.8-1.2-3.6-1.3-13.6-1-35.4-10.6-45.9-20-3.2-2.9-3.5-2 6-15.9l6.9-10.2 5.9 4.2c13.1 9.4 24 13.6 36.1 14.2 21.9.9 32.5-7.9 32-26.7-.4-14.5-7.8-21.7-38.1-37-16.5-8.4-22-12.1-29.8-19.9-10.5-10.5-14.8-21.3-14.2-36.1.4-11.5 2.6-18.9 8-27.3 7.3-11.5 20.4-20.5 33.4-23 1.2-.2 2.5-.7 2.9-1 .3-.3.6-7.4.7-15.8.1-8.4.2-15.2.3-15.2 1.7 0 22.8.4 23.3.4zm426.7 26.7c13 3.4 23.3 9.5 32.7 19.1l4.4 4.6-10.1 9.9c-5.5 5.4-10.4 9.8-10.8 9.8-.4 0-2-1.4-3.6-3-6.9-7.2-17.4-11.8-26-11.5-14.3.6-23 6-28.3 17.3-2.3 5-2.6 7-2.7 16.2 0 11.4.5 15.4 3.2 25.4l1.7 6.6h50.1l-.1 9.8c-.1 5.3-.2 10.7-.3 11.9l-.1 2.3h-43.7l.2 10.7c.4 17.8-3.5 30.1-13.1 42-1.9 2.3-3.4 4.4-3.4 4.7 0 .3 19.6.6 43.5.6H620l.1 2.2c.1 3.9.1 23.2 0 26.5l-.1 3.3H482.4l.1-11.5.1-11.6 5.3-3.1c8.2-4.6 18.3-15.5 22.5-24 5.6-11.4 6.8-19.1 5.8-36.6l-.2-3.2h-33.1l.3-11.1.3-11.2 4-.4c7.7-.8 12.1-1.1 16.6-1.2l4.7-.1-3-9.8c-3.6-12-4.5-28.5-2.1-39.7 1.9-8.9 7.2-19.8 12.8-26.2 8.2-9.3 23.8-17.2 38.5-19.6 5.3-.8 23.6-.2 27.9.9z"/><path d="M299 273.5v46.7l23.3-.5c16.4-.4 25.1-1 29.5-2.1 23.5-5.9 33.4-20.6 33.3-49.1-.1-22.1-10.9-35-33.6-40.1-1.6-.4-14.1-.9-27.7-1.1l-24.8-.5v46.7zM300.2 363.8c-.9.3-1.2 13.2-1.2 51.9v51.5l25.8-.5c26.9-.5 28.3-.6 37.8-3.1 13.7-3.6 25.2-12.4 30.6-23.6 6.7-14 6.6-38.7-.3-52.2-6.3-12.3-20.6-20.8-39.9-23.4-5-.7-51-1.2-52.8-.6z"/></svg>