<?xml version="1.0" standalone="no"?>
<!DOCTYPE svg PUBLIC "-//W3C//DTD SVG 20010904//EN"
 "http://www.w3.org/TR/2001/REC-SVG-20010904/DTD/svg10.dtd">
<svg version="1.0" xmlns="http://www.w3.org/2000/svg"
 width="1048.000000pt" height="1048.000000pt" viewBox="0 0 1048.000000 1048.000000"
 preserveAspectRatio="xMidYMid meet">
<metadata>
Created by potrace 1.11, written by Peter Selinger 2001-2013
</metadata>
<g transform="translate(0.000000,1048.000000) scale(0.100000,-0.100000)"
fill="#000000" stroke="none">
<path d="M3845 10359 c0 -66 -3 -123 -7 -125 -5 -3 -5 -11 -1 -17 10 -16 11
-197 1 -203 -5 -3 -5 -11 -1 -17 10 -16 11 -237 1 -244 -5 -2 -5 -10 -1 -16
10 -16 11 -197 1 -203 -5 -3 -5 -11 -1 -17 10 -16 10 -297 1 -304 -5 -2 -5
-10 -1 -16 10 -16 11 -237 1 -244 -5 -2 -5 -10 -1 -16 10 -16 11 -197 1 -203
-5 -3 -5 -11 -1 -17 10 -16 10 -237 0 -244 -4 -2 -4 -10 1 -16 11 -16 9 -188
-2 -206 -6 -9 -5 -12 1 -8 6 4 9 -23 8 -71 -1 -42 1 -81 6 -87 5 -7 481 -10
1396 -10 l1388 1 0 324 c0 179 4 330 7 336 4 6 4 14 1 18 -12 11 -9 336 2 336
6 0 6 3 0 8 -14 9 -14 175 0 184 6 5 6 8 0 8 -11 0 -14 228 -3 246 4 6 4 14 1
18 -12 11 -10 366 2 366 7 0 7 3 0 8 -12 8 -14 231 -2 249 4 6 4 14 0 16 -5 3
-8 69 -8 146 l0 141 -1396 0 -1396 0 2 -121z"/>
<path d="M2235 6400 c-3 -6 -3 -10 2 -10 9 0 9 -92 0 -107 -4 -6 -4 -13 0 -17
9 -9 9 -126 0 -126 -5 0 -5 -5 -1 -12 10 -15 11 -229 1 -235 -4 -2 -4 -9 0
-15 9 -16 10 -138 0 -138 -5 0 -5 -5 -1 -11 4 -7 6 -37 5 -68 -2 -61 -2 -59
-1 -116 0 -22 1 -51 0 -65 0 -14 0 -47 0 -75 0 -27 0 -57 0 -65 -1 -8 1 -41 2
-72 2 -32 0 -58 -5 -58 -4 0 -5 -5 -1 -12 10 -16 11 -259 1 -265 -4 -2 -4 -9
0 -15 9 -16 10 -138 0 -138 -4 0 -4 -7 1 -16 5 -9 6 -33 2 -54 -4 -21 -4 -43
-1 -48 8 -14 6 -166 -3 -180 -4 -7 -4 -12 1 -12 9 0 9 -92 0 -107 -4 -6 -4
-13 0 -17 9 -9 9 -126 0 -126 -5 0 -5 -5 -1 -12 4 -6 8 -55 8 -107 l1 -95
2996 -1 2997 0 -2 108 c0 59 2 107 5 107 4 0 4 15 0 33 -8 42 -6 190 3 205 4
7 4 12 -1 12 -4 0 -8 52 -8 115 0 63 2 115 5 115 3 0 5 11 5 25 0 14 -2 25 -5
25 -7 0 -3 137 4 149 4 6 4 11 -1 11 -10 0 -8 133 1 149 4 6 4 11 -1 11 -10 0
-8 133 1 149 4 6 4 11 -1 11 -10 0 -8 133 1 149 4 6 4 11 -1 11 -10 0 -8 133
1 149 4 6 4 11 -1 11 -10 0 -8 133 1 149 4 6 4 11 -1 11 -10 0 -8 133 1 149 4
6 4 11 -1 11 -4 0 -7 44 -6 97 1 54 2 114 2 133 1 19 0 72 -2 118 -1 45 1 82
5 82 4 0 5 6 2 13 -2 7 -6 31 -7 53 l-2 39 -2997 2 c-1980 2 -2999 0 -3003 -7z"/>
<path d="M650 2402 c-7 -3 -10 -412 -10 -1203 l0 -1199 4600 0 4600 0 -2 1202
-3 1202 -4588 1 c-2523 0 -4592 -1 -4597 -3z"/>
</g>
</svg>
