<svg id="visual" viewBox="0 0 900 100" width="900" height="100" xmlns="http://www.w3.org/2000/svg" xmlns:xlink="http://www.w3.org/1999/xlink" version="1.1"><path d="M0 51L25 55.2C50 59.3 100 67.7 150 62.3C200 57 250 38 300 38.5C350 39 400 59 450 67.5C500 76 550 73 600 67.3C650 61.7 700 53.3 750 47.3C800 41.3 850 37.7 875 35.8L900 34L900 101L875 101C850 101 800 101 750 101C700 101 650 101 600 101C550 101 500 101 450 101C400 101 350 101 300 101C250 101 200 101 150 101C100 101 50 101 25 101L0 101Z" fill="#ffffff" stroke-linecap="round" stroke-linejoin="miter"></path></svg>