<svg id="visual" viewBox="0 0 900 100" width="900" height="100" xmlns="http://www.w3.org/2000/svg" xmlns:xlink="http://www.w3.org/1999/xlink" version="1.1"><path d="M0 31L25 29.7C50 28.3 100 25.7 150 33C200 40.3 250 57.7 300 59.2C350 60.7 400 46.3 450 46.7C500 47 550 62 600 63.7C650 65.3 700 53.7 750 53.2C800 52.7 850 63.3 875 68.7L900 74L900 0L875 0C850 0 800 0 750 0C700 0 650 0 600 0C550 0 500 0 450 0C400 0 350 0 300 0C250 0 200 0 150 0C100 0 50 0 25 0L0 0Z" fill="#ffffff" stroke-linecap="round" stroke-linejoin="miter"></path></svg>