<?xml version="1.0" standalone="no"?>
<!DOCTYPE svg PUBLIC "-//W3C//DTD SVG 20010904//EN"
 "http://www.w3.org/TR/2001/REC-SVG-20010904/DTD/svg10.dtd">
<svg version="1.0" xmlns="http://www.w3.org/2000/svg"
 width="4096.000000pt" height="4096.000000pt" viewBox="0 0 4096.000000 4096.000000"
 preserveAspectRatio="xMidYMid meet">
<metadata>
Created by potrace 1.11, written by Peter Selinger 2001-2013
</metadata>
<g transform="translate(0.000000,4096.000000) scale(0.100000,-0.100000)"
fill="#000000" stroke="none">
<path d="M19898 38925 c-1 -2 -75 -6 -163 -10 -189 -7 -274 -11 -410 -20 -55
-4 -127 -8 -160 -11 -80 -5 -190 -13 -245 -19 -25 -2 -79 -7 -120 -10 -41 -3
-91 -8 -110 -10 -19 -3 -60 -7 -90 -10 -30 -3 -98 -10 -150 -16 -52 -6 -111
-13 -130 -14 -44 -5 -127 -15 -160 -20 -14 -2 -81 -11 -150 -20 -69 -9 -136
-18 -150 -21 -14 -2 -43 -7 -65 -9 -66 -9 -282 -43 -405 -64 -151 -26 -153
-26 -310 -56 -74 -14 -146 -28 -160 -31 -37 -7 -300 -62 -410 -85 -52 -12
-160 -36 -239 -55 -80 -19 -154 -36 -165 -39 -12 -2 -21 -4 -21 -5 0 -1 -11
-4 -25 -6 -32 -6 -353 -89 -440 -114 -36 -10 -123 -35 -195 -55 -362 -102
-966 -297 -1255 -407 -58 -22 -109 -41 -115 -42 -11 -2 -25 -7 -340 -131 -204
-80 -520 -210 -625 -258 -555 -249 -1019 -476 -1390 -679 -85 -47 -186 -102
-225 -123 -138 -75 -564 -326 -703 -414 -39 -25 -108 -68 -153 -96 -93 -58
-553 -362 -679 -450 -322 -224 -746 -542 -1045 -784 -71 -58 -138 -113 -149
-121 -10 -8 -23 -20 -30 -25 -6 -6 -36 -30 -66 -55 -51 -42 -98 -81 -124 -105
-6 -5 -40 -35 -76 -65 -58 -49 -194 -168 -275 -241 -16 -15 -41 -37 -55 -49
-36 -31 -197 -180 -314 -290 -127 -120 -623 -615 -736 -736 -111 -118 -263
-284 -330 -359 -29 -33 -69 -78 -89 -100 -72 -79 -351 -406 -460 -540 -535
-658 -1034 -1363 -1455 -2055 -59 -96 -111 -182 -116 -190 -19 -32 -103 -175
-120 -204 -9 -17 -46 -83 -82 -146 -63 -112 -100 -179 -161 -290 -16 -30 -35
-65 -43 -76 -24 -39 -339 -666 -414 -824 -191 -404 -481 -1088 -585 -1380 -13
-36 -46 -128 -75 -205 -28 -77 -58 -158 -65 -180 -7 -22 -47 -139 -88 -261
-68 -200 -166 -511 -246 -784 -60 -206 -223 -839 -237 -920 -3 -14 -14 -63
-25 -110 -12 -47 -23 -94 -25 -105 -2 -11 -6 -31 -9 -45 -9 -40 -22 -104 -81
-395 -2 -10 -6 -37 -10 -59 -3 -22 -7 -43 -9 -46 -2 -4 -7 -29 -11 -56 -3 -27
-8 -52 -10 -55 -2 -4 -6 -28 -9 -55 -4 -26 -8 -51 -10 -54 -2 -4 -7 -29 -11
-56 -3 -27 -8 -58 -10 -69 -3 -11 -7 -36 -9 -55 -3 -19 -8 -44 -10 -55 -7 -32
-63 -414 -70 -475 -3 -30 -8 -66 -10 -80 -3 -14 -7 -45 -10 -70 -3 -25 -7 -56
-9 -70 -3 -14 -8 -56 -11 -95 -3 -38 -8 -81 -10 -95 -7 -47 -14 -115 -20 -185
-3 -38 -8 -81 -10 -95 -2 -14 -7 -59 -10 -100 -3 -41 -8 -95 -10 -120 -16
-192 -23 -287 -40 -570 -15 -259 -19 -431 -19 -975 -1 -515 6 -844 19 -1009 2
-22 7 -97 10 -166 3 -69 8 -142 11 -162 2 -21 6 -73 9 -115 3 -43 7 -96 10
-118 2 -22 7 -80 11 -130 3 -49 8 -98 10 -108 2 -10 6 -53 10 -95 3 -42 7 -84
9 -92 1 -8 6 -44 9 -80 10 -88 16 -140 21 -170 2 -14 7 -50 10 -80 7 -67 12
-104 24 -195 6 -38 13 -90 16 -115 3 -25 13 -88 21 -140 20 -122 22 -137 29
-185 5 -32 29 -175 49 -290 3 -17 20 -108 40 -215 7 -39 46 -232 52 -255 2
-11 7 -36 10 -55 3 -19 16 -82 29 -140 23 -99 29 -129 41 -190 2 -14 7 -32 10
-40 3 -8 8 -26 10 -40 3 -14 10 -43 16 -65 5 -22 12 -49 14 -60 7 -36 114
-459 139 -545 13 -47 40 -143 60 -215 88 -314 256 -840 360 -1125 138 -381
144 -397 263 -695 79 -197 239 -573 302 -710 18 -38 44 -95 57 -125 14 -30 37
-80 51 -110 45 -98 330 -672 385 -775 29 -55 76 -143 104 -195 28 -52 65 -119
82 -148 17 -29 31 -55 31 -57 0 -3 18 -34 40 -70 22 -36 40 -68 40 -71 0 -4
29 -55 206 -352 85 -143 83 -139 163 -269 89 -144 389 -600 491 -747 62 -89
285 -402 290 -406 3 -3 23 -30 45 -60 22 -30 43 -59 47 -65 4 -5 41 -53 80
-105 40 -52 86 -113 103 -135 53 -72 346 -437 454 -565 105 -125 281 -331 291
-340 3 -3 39 -43 80 -90 41 -47 94 -105 116 -130 23 -25 56 -61 74 -80 154
-169 297 -317 545 -565 245 -244 349 -345 559 -540 65 -60 140 -128 210 -190
44 -38 84 -75 90 -80 6 -6 63 -55 126 -109 63 -54 126 -108 140 -120 22 -19
172 -143 315 -261 75 -62 362 -285 430 -336 33 -24 62 -46 65 -50 3 -3 75 -56
160 -119 85 -62 174 -127 197 -144 47 -34 69 -50 188 -133 122 -86 498 -338
515 -346 8 -4 56 -34 105 -67 50 -33 106 -69 125 -80 19 -11 54 -33 77 -48 48
-31 378 -231 408 -248 11 -6 55 -32 98 -57 43 -26 81 -47 83 -47 2 0 34 -18
70 -40 36 -22 68 -40 71 -40 2 0 35 -17 71 -39 37 -21 112 -62 167 -91 55 -30
116 -62 135 -73 131 -75 755 -382 995 -489 61 -28 135 -61 165 -75 30 -14 129
-57 220 -95 91 -38 179 -76 195 -83 176 -79 759 -299 1035 -391 58 -20 114
-40 125 -45 22 -9 333 -110 430 -139 33 -10 128 -38 210 -63 177 -53 355 -104
430 -123 6 -1 60 -16 120 -32 103 -28 359 -92 505 -126 165 -38 237 -55 265
-60 17 -4 39 -8 50 -11 53 -12 524 -106 555 -111 19 -2 55 -9 80 -14 25 -5 59
-12 75 -15 17 -3 39 -7 50 -9 11 -2 40 -7 65 -10 25 -3 56 -8 70 -11 48 -10
75 -14 120 -20 25 -3 68 -9 95 -15 28 -5 68 -12 90 -14 22 -3 92 -12 155 -21
255 -35 248 -34 305 -40 28 -3 84 -10 125 -15 41 -5 106 -12 143 -16 37 -3 76
-7 85 -9 9 -1 55 -6 102 -10 47 -4 99 -9 115 -11 39 -3 190 -16 235 -19 19 -2
69 -6 110 -9 121 -9 254 -17 565 -33 309 -16 1392 -8 1735 12 95 5 297 18 330
20 104 7 229 17 255 20 17 3 66 7 110 10 44 4 91 8 105 10 14 2 59 7 100 10
41 3 86 8 100 10 14 2 54 6 90 10 36 3 76 8 90 10 14 2 48 7 75 10 51 6 75 9
155 19 25 4 59 8 75 10 82 10 276 38 320 46 28 5 68 11 90 14 22 3 51 8 65 10
14 2 59 10 100 16 41 7 84 14 95 16 11 3 36 7 55 10 19 3 53 9 75 14 22 5 63
12 90 16 28 3 53 8 56 10 3 2 21 6 40 9 19 3 57 10 84 15 28 6 61 12 75 15 37
7 172 35 195 40 52 12 264 58 300 65 22 5 141 34 265 65 124 31 232 58 241 60
9 2 67 17 130 34 63 17 139 37 169 45 388 104 1006 302 1460 469 201 74 450
171 497 192 17 8 33 15 36 15 8 0 359 147 435 181 34 16 64 29 67 29 4 0 312
139 434 196 121 57 709 350 791 395 41 22 111 60 155 83 105 57 142 78 385
216 353 202 622 366 945 579 55 36 105 68 110 71 30 14 581 401 721 507 233
174 348 262 444 337 129 101 458 369 507 413 17 15 42 37 55 47 13 10 68 58
123 106 55 47 113 97 129 111 16 13 41 35 56 49 14 14 62 56 104 95 43 38 91
81 106 95 15 14 78 72 141 130 131 122 662 650 794 791 96 102 232 250 311
338 27 30 60 66 73 80 13 14 89 103 170 196 80 94 151 175 156 181 6 7 26 31
45 54 19 24 49 59 66 79 27 32 342 428 419 527 44 57 298 398 315 424 8 13 24
35 36 49 72 91 465 676 609 906 92 148 111 179 139 223 62 97 269 453 346 592
224 406 261 477 434 825 172 347 175 353 376 800 254 568 530 1314 747 2020
99 323 269 945 298 1093 2 9 12 55 24 102 47 197 162 751 186 900 3 19 8 49
12 65 3 17 7 39 9 50 2 11 8 47 14 80 6 33 13 76 16 95 3 19 8 49 10 65 3 17
7 41 9 55 2 14 6 39 9 55 3 17 8 50 11 75 3 25 10 70 15 100 9 51 13 85 25
178 16 135 34 269 40 312 2 14 6 57 10 95 4 39 8 77 10 86 2 8 6 49 9 91 4 41
8 84 10 94 2 11 7 60 11 109 4 50 8 106 10 125 7 66 18 223 30 410 4 63 8 135
10 160 27 364 27 1543 0 1972 -2 35 -7 115 -10 178 -8 125 -11 171 -19 270 -4
36 -8 90 -10 120 -10 124 -18 216 -21 231 -2 8 -6 53 -10 100 -4 46 -8 91 -10
99 -1 8 -6 49 -10 90 -4 41 -9 82 -10 90 -2 8 -6 44 -10 80 -4 36 -8 72 -10
80 -2 9 -6 43 -10 75 -4 33 -8 71 -11 85 -2 14 -6 47 -9 74 -4 28 -8 52 -10
56 -2 3 -6 37 -10 75 -4 39 -9 73 -11 76 -1 3 -6 28 -9 55 -4 27 -22 141 -42
254 -19 113 -37 219 -40 235 -4 27 -60 320 -68 355 -2 8 -15 69 -29 135 -25
122 -37 175 -76 345 -30 133 -106 444 -141 575 -31 117 -40 146 -89 320 -18
61 -35 124 -40 140 -9 35 -54 187 -68 230 -6 17 -31 98 -57 180 -46 144 -169
514 -182 545 -3 8 -7 20 -8 25 -4 14 -45 126 -55 150 -5 11 -38 99 -73 195
-285 770 -714 1702 -1110 2410 -39 69 -81 145 -95 170 -287 515 -746 1232
-1106 1725 -112 155 -279 379 -285 385 -4 3 -35 43 -70 90 -66 86 -291 371
-301 380 -3 3 -23 28 -45 55 -22 28 -48 59 -58 70 -11 11 -31 36 -45 55 -15
19 -30 37 -33 40 -3 3 -34 39 -69 80 -153 180 -285 330 -460 520 -390 424
-924 951 -1290 1273 -30 27 -68 61 -85 76 -16 16 -52 47 -80 71 -66 57 -166
142 -179 155 -6 6 -36 30 -66 55 -30 25 -57 47 -60 50 -3 3 -30 25 -60 50 -30
25 -57 47 -60 50 -6 6 -259 208 -390 311 -83 66 -252 192 -485 364 -182 135
-699 487 -870 594 -16 10 -68 43 -115 73 -47 30 -159 100 -250 155 -368 223
-594 351 -975 555 -116 61 -680 342 -800 398 -204 95 -337 154 -490 220 -93
40 -188 80 -210 90 -22 10 -154 63 -294 119 -677 270 -1401 510 -2106 697
-130 34 -522 132 -560 139 -11 3 -38 9 -60 14 -22 5 -74 17 -115 26 -41 9 -91
20 -110 25 -19 5 -49 11 -66 14 -17 3 -98 19 -180 36 -133 27 -262 51 -349 66
-16 2 -37 7 -45 9 -8 3 -35 7 -59 10 -24 3 -47 7 -50 9 -3 2 -30 7 -60 11 -30
4 -63 9 -75 11 -31 7 -333 53 -380 59 -23 3 -52 7 -66 10 -14 2 -47 7 -75 10
-27 3 -61 8 -75 10 -48 7 -125 17 -155 20 -31 2 -114 12 -175 20 -19 3 -60 7
-90 10 -30 3 -75 8 -100 10 -25 3 -65 7 -90 10 -46 5 -113 10 -235 20 -38 3
-90 8 -115 10 -25 3 -85 7 -135 10 -49 3 -112 8 -140 10 -27 2 -108 7 -180 10
-71 4 -166 9 -210 11 -94 6 -1352 14 -1357 9z m-680 -12293 l2 -772 828 0
c758 0 946 -3 1254 -15 l108 -4 2 782 3 782 578 0 577 0 0 -815 0 -815 178
-39 c224 -49 329 -80 497 -146 327 -129 649 -345 882 -593 32 -33 67 -71 79
-82 53 -56 254 -326 254 -341 0 -3 13 -24 28 -47 96 -141 239 -468 266 -607 3
-14 10 -43 16 -65 5 -22 16 -78 25 -125 14 -80 19 -122 30 -230 5 -53 6 -348
1 -405 -7 -82 -29 -237 -40 -290 -31 -144 -69 -269 -119 -395 -35 -89 -129
-281 -157 -320 -11 -16 -20 -31 -20 -34 0 -18 -178 -265 -257 -358 -62 -72
-216 -219 -304 -289 -176 -141 -324 -227 -604 -354 -104 -48 -221 -101 -260
-119 -38 -18 -130 -59 -202 -92 -73 -32 -133 -62 -133 -65 0 -4 10 -9 23 -12
36 -8 807 -236 867 -256 62 -22 155 -57 185 -71 11 -5 54 -23 95 -41 138 -59
375 -192 486 -274 178 -132 391 -335 494 -474 14 -19 30 -39 35 -45 15 -16
118 -172 149 -226 118 -206 233 -509 270 -713 29 -158 33 -191 43 -302 14
-164 7 -537 -12 -647 -2 -12 -11 -63 -19 -113 -22 -138 -62 -296 -113 -450
-25 -77 -49 -144 -53 -150 -3 -5 -15 -32 -25 -60 -30 -85 -162 -351 -227 -458
-329 -545 -797 -934 -1373 -1140 -254 -91 -546 -153 -910 -193 -27 -3 -56 -7
-62 -9 -10 -3 -13 -176 -15 -797 l-3 -793 -577 0 -578 0 0 778 0 778 -422 -5
c-233 -3 -726 -5 -1095 -5 l-673 -1 0 -772 0 -773 -580 0 -580 0 -1 30 c0 16
-1 364 -1 773 l-1 742 -796 0 -796 0 1 5377 0 5378 796 3 795 2 1 733 c0 402
1 750 1 772 l1 40 578 0 577 0 3 -773z m11820 112 c0 -201 1 -367 3 -368 2 -2
27 -6 54 -9 166 -19 384 -49 475 -66 495 -92 933 -273 1280 -530 41 -30 77
-58 80 -61 3 -3 21 -18 40 -34 101 -81 292 -282 382 -402 121 -160 272 -423
352 -614 22 -54 96 -259 101 -280 2 -8 15 -57 30 -108 15 -51 26 -95 24 -96
-2 -2 -35 -7 -74 -11 -38 -4 -72 -8 -75 -10 -3 -1 -32 -6 -65 -9 -33 -4 -67
-9 -75 -11 -8 -2 -42 -6 -75 -10 -33 -3 -89 -10 -125 -15 -36 -5 -87 -12 -115
-15 -27 -4 -61 -8 -75 -10 -22 -4 -72 -10 -315 -41 -22 -2 -51 -7 -65 -9 -14
-2 -47 -7 -75 -10 -27 -3 -61 -8 -75 -10 -48 -7 -145 -18 -168 -19 -26 -1 -23
-7 -78 144 -89 244 -232 470 -413 651 -144 143 -237 214 -401 302 -98 53 -541
249 -548 242 -3 -3 -6 -3521 -3 -3631 1 -22 6 -24 211 -80 327 -88 609 -179
875 -280 228 -86 277 -107 505 -217 80 -39 148 -71 152 -71 4 -1 13 -7 20 -13
6 -7 15 -13 19 -13 13 0 180 -99 294 -174 290 -191 510 -407 678 -666 86 -132
82 -125 133 -224 140 -271 245 -625 280 -941 3 -27 7 -63 9 -80 23 -158 23
-669 1 -805 -2 -14 -7 -50 -11 -80 -13 -113 -18 -138 -46 -278 -89 -430 -268
-836 -522 -1182 -39 -52 -73 -97 -76 -100 -4 -3 -26 -30 -51 -60 -287 -354
-721 -672 -1176 -863 -165 -69 -523 -185 -629 -203 -16 -3 -46 -9 -65 -14 -43
-11 -59 -14 -235 -44 -140 -24 -196 -33 -270 -42 -61 -8 -87 -13 -92 -18 -3
-3 -6 -319 -7 -703 l-1 -698 -260 -2 c-143 -2 -269 -1 -280 2 -20 4 -20 12
-19 685 1 388 -2 682 -7 686 -5 3 -26 6 -46 8 -21 2 -60 7 -88 10 -83 12 -113
16 -167 22 -29 3 -75 9 -103 14 -27 5 -66 12 -85 15 -138 23 -343 73 -480 118
-52 17 -97 31 -100 32 -57 11 -337 134 -460 201 -693 377 -1150 919 -1447
1714 -51 138 -140 432 -157 520 -3 14 -14 64 -24 113 -11 48 -19 87 -19 88 6
3 42 7 102 13 94 9 152 15 200 21 39 5 80 10 180 19 28 3 70 8 95 11 25 3 66
7 93 10 26 3 68 7 95 10 26 3 67 7 92 10 25 3 65 8 90 10 25 2 70 7 100 11 30
3 69 7 85 9 54 5 170 17 185 20 8 2 48 6 88 10 63 6 72 5 72 -10 0 -34 105
-314 165 -440 106 -224 208 -384 368 -579 104 -126 271 -293 367 -367 25 -18
47 -37 50 -40 22 -25 317 -209 334 -209 2 0 96 -45 210 -100 114 -55 208 -100
210 -100 2 0 4 875 4 1944 l0 1944 -77 22 c-42 12 -94 28 -116 35 -22 7 -58
17 -80 23 -143 41 -485 159 -569 196 -17 8 -80 35 -141 61 -420 179 -808 431
-1095 709 -124 121 -328 364 -348 416 -3 8 -8 17 -12 20 -14 12 -95 149 -149
253 -55 107 -141 304 -155 357 -4 14 -11 34 -16 45 -28 63 -106 379 -124 505
-21 151 -25 183 -33 290 -9 120 -9 481 0 580 8 78 17 161 22 195 15 102 51
276 71 345 28 95 66 214 79 245 7 17 26 62 41 100 33 81 118 248 145 287 11
14 19 29 19 33 0 13 152 229 218 310 64 78 281 300 353 360 64 54 193 150 249
186 145 94 183 116 324 183 189 91 364 157 536 201 36 9 72 19 80 21 38 10
208 45 238 49 68 10 98 15 117 19 11 2 54 7 95 11 41 4 82 8 90 10 8 2 49 6
90 9 41 4 84 9 95 11 11 2 28 4 37 4 15 1 17 28 17 324 0 177 0 343 0 368 l1
47 279 0 278 0 1 -364z m-19848 -699 c80 -3 165 -8 190 -10 108 -9 176 -17
195 -20 11 -3 38 -7 60 -10 44 -6 144 -22 190 -30 126 -23 471 -120 550 -155
11 -5 65 -27 119 -50 394 -165 757 -437 1032 -775 49 -61 155 -208 181 -252
152 -259 244 -461 322 -703 34 -108 96 -345 106 -405 l6 -41 -188 -27 c-103
-15 -201 -30 -218 -32 -16 -3 -106 -16 -200 -29 -209 -31 -226 -33 -345 -52
-52 -8 -115 -17 -140 -20 -25 -3 -56 -7 -70 -10 -14 -2 -43 -7 -65 -9 -22 -3
-85 -13 -140 -21 -55 -8 -118 -18 -140 -20 l-40 -5 -34 121 c-41 146 -94 294
-150 413 -57 123 -173 316 -214 359 -7 7 -20 23 -29 36 -46 67 -221 230 -311
290 -163 109 -300 176 -452 220 -349 103 -740 99 -1085 -9 -547 -173 -1002
-675 -1115 -1229 -35 -172 -43 -274 -39 -480 2 -96 5 -189 8 -206 3 -17 8 -60
11 -95 15 -147 45 -326 101 -604 2 -11 20 -85 40 -165 19 -80 37 -152 39 -160
10 -41 68 -242 86 -296 11 -33 21 -69 23 -80 2 -10 11 -37 19 -59 9 -22 39
-105 68 -185 28 -80 55 -157 61 -171 l9 -26 1152 -1 c634 0 1157 -1 1162 -1 7
-1 11 -185 11 -574 l0 -572 -1044 0 c-574 0 -1045 -2 -1047 -5 -1 -3 3 -48 11
-100 7 -52 16 -124 20 -160 3 -36 8 -68 10 -71 7 -13 17 -181 17 -294 0 -111
-8 -265 -18 -325 -2 -14 -6 -43 -9 -65 -12 -78 -38 -201 -61 -285 -67 -240
-143 -406 -308 -675 -110 -178 -414 -589 -591 -796 -93 -108 -121 -144 -118
-152 3 -10 283 -366 317 -405 l21 -22 38 19 c100 51 328 117 466 135 25 3 56
8 69 11 87 17 421 24 602 12 197 -13 257 -24 774 -153 143 -35 269 -66 280
-68 11 -2 65 -15 120 -29 55 -14 114 -28 130 -31 17 -2 62 -12 100 -21 39 -8
93 -20 120 -25 141 -26 218 -39 257 -45 24 -3 50 -8 58 -10 104 -27 559 -27
660 0 8 2 33 7 55 10 47 6 53 7 155 30 96 21 93 20 170 40 141 36 377 113 555
182 77 29 143 53 147 53 6 0 68 -123 68 -135 0 -2 27 -60 60 -130 33 -70 60
-129 60 -131 0 -4 51 -116 175 -389 153 -335 245 -540 245 -547 0 -7 -38 -26
-60 -30 -3 -1 -30 -12 -60 -26 -30 -13 -93 -38 -140 -54 -47 -16 -92 -32 -100
-36 -8 -3 -17 -6 -20 -7 -19 -5 -191 -57 -215 -65 -107 -33 -459 -114 -555
-126 -19 -2 -46 -6 -60 -9 -14 -2 -47 -7 -75 -11 -27 -3 -61 -7 -75 -10 -138
-23 -604 -23 -780 1 -14 1 -47 6 -75 9 -101 12 -131 16 -155 21 -14 3 -43 7
-65 11 -22 3 -89 14 -150 26 -60 11 -121 22 -135 25 -14 2 -65 13 -115 24 -49
12 -101 23 -115 25 -62 12 -445 112 -725 189 -122 34 -181 49 -345 91 -185 47
-459 109 -524 120 -21 3 -48 8 -60 10 -11 3 -61 12 -111 20 -49 8 -101 17
-115 19 -14 3 -45 7 -70 10 -25 3 -54 8 -65 10 -91 19 -460 26 -620 12 -104
-9 -129 -13 -245 -33 -47 -8 -98 -18 -115 -20 -58 -10 -261 -65 -355 -96 -218
-71 -578 -232 -741 -331 -88 -53 -82 -54 -119 31 -37 85 -68 156 -104 235 -25
55 -136 305 -231 522 -32 72 -65 146 -73 165 -9 19 -16 37 -17 40 -1 3 -16 36
-33 74 -18 38 -32 70 -32 72 0 6 -59 138 -71 158 -10 16 -7 23 17 40 16 12 81
64 144 117 351 292 633 599 843 919 278 426 482 953 536 1390 20 159 27 363
17 510 -5 63 -17 200 -21 230 -2 14 -6 52 -10 85 -4 33 -12 96 -19 140 l-11
80 -782 0 c-431 0 -784 2 -784 5 -7 26 -2 1133 5 1137 4 3 303 6 663 6 509 0
653 3 649 12 -9 24 -128 372 -156 455 -60 181 -137 466 -160 595 -5 28 -12 61
-15 75 -26 122 -66 412 -81 600 -15 186 -8 719 10 749 2 3 7 29 10 56 5 49 11
80 36 195 17 80 85 304 110 365 5 11 26 61 46 110 332 794 961 1335 1890 1624
109 34 372 97 444 107 25 3 47 7 50 9 3 2 29 6 59 10 30 4 62 8 72 10 10 2 49
7 86 11 37 4 82 8 98 10 17 2 111 7 210 10 99 4 181 7 182 8 2 2 74 -1 253 -9z"/>
<path d="M18195 24531 c-1 -3 -3 -718 -3 -1588 l0 -1583 21 -1 c12 0 519 -1
1127 0 1004 0 1699 6 1949 16 122 5 311 16 331 20 8 1 44 6 80 10 286 31 591
140 825 294 123 81 308 262 385 376 99 147 176 325 216 494 15 66 17 78 34
206 9 69 6 366 -5 435 -29 196 -64 315 -135 465 -41 86 -119 218 -139 235 -3
3 -19 22 -35 43 -85 114 -267 266 -416 346 -166 88 -400 163 -590 186 -19 3
-51 7 -70 10 -91 12 -245 20 -645 31 -290 8 -2925 12 -2930 5z"/>
<path d="M18208 20032 c-15 -3 -16 -166 -16 -1793 l0 -1789 51 -1 c251 -3
2878 1 3032 5 452 13 594 22 825 51 97 13 148 23 290 59 185 47 429 169 589
296 359 284 558 668 598 1155 58 707 -197 1291 -710 1629 -279 182 -553 273
-972 321 -22 2 -58 7 -80 10 -62 8 -144 16 -210 20 -33 2 -105 6 -160 10 -171
10 -253 14 -465 21 -200 6 -2741 12 -2772 6z"/>
<path d="M30440 25318 c-14 -6 -29 -12 -35 -14 -5 -1 -98 -32 -205 -69 -172
-59 -354 -138 -445 -192 -388 -234 -677 -621 -784 -1048 -33 -136 -44 -234
-44 -400 0 -256 46 -460 154 -683 115 -239 270 -430 479 -592 25 -19 47 -38
50 -41 3 -3 43 -30 90 -61 108 -70 286 -164 415 -218 55 -23 118 -50 141 -61
23 -10 82 -36 131 -57 l91 -40 0 1744 c0 959 -3 1744 -6 1743 -4 0 -18 -5 -32
-11z"/>
<path d="M31039 20108 c-3 -20 0 -3710 4 -3714 7 -8 369 61 487 92 334 87 628
259 860 501 93 97 97 101 173 206 82 112 150 232 201 353 32 78 92 277 101
334 4 25 8 47 10 50 2 4 7 38 11 76 3 38 8 78 10 89 6 28 6 303 0 345 -3 19
-8 57 -11 84 -10 83 -46 242 -65 291 -4 11 -18 47 -31 80 -47 125 -107 233
-201 362 -122 167 -266 303 -443 419 -87 56 -257 147 -345 183 -30 13 -68 29
-85 36 -52 23 -197 73 -290 100 -197 58 -331 96 -348 100 -9 2 -22 7 -27 10
-6 3 -10 5 -11 3z"/>
</g>
</svg>
